<?xml version="1.0" encoding="utf-8" standalone="no"?>
<!DOCTYPE svg PUBLIC "-//W3C//DTD SVG 1.1//EN"
  "http://www.w3.org/Graphics/SVG/1.1/DTD/svg11.dtd">
<svg xmlns:xlink="http://www.w3.org/1999/xlink" width="859.620938pt" height="423.086875pt" viewBox="0 0 859.620938 423.086875" xmlns="http://www.w3.org/2000/svg" version="1.1">
 <metadata>
  <rdf:RDF xmlns:dc="http://purl.org/dc/elements/1.1/" xmlns:cc="http://creativecommons.org/ns#" xmlns:rdf="http://www.w3.org/1999/02/22-rdf-syntax-ns#">
   <cc:Work>
    <dc:type rdf:resource="http://purl.org/dc/dcmitype/StillImage"/>
    <dc:date>2026-02-26T18:21:58.327603</dc:date>
    <dc:format>image/svg+xml</dc:format>
    <dc:creator>
     <cc:Agent>
      <dc:title>Matplotlib v3.10.7, https://matplotlib.org/</dc:title>
     </cc:Agent>
    </dc:creator>
   </cc:Work>
  </rdf:RDF>
 </metadata>
 <defs>
  <style type="text/css">*{stroke-linejoin: round; stroke-linecap: butt}</style>
 </defs>
 <g id="figure_1">
  <g id="patch_1">
   <path d="M 0 423.086875 
L 859.620938 423.086875 
L 859.620938 0 
L 0 0 
z
" style="fill: #ffffff"/>
  </g>
  <g id="axes_1">
   <g id="patch_2">
    <path d="M 52.160938 196.800625 
L 852.420938 196.800625 
L 852.420938 22.370625 
L 52.160938 22.370625 
z
" style="fill: #ffffff"/>
   </g>
   <g id="FillBetweenPolyCollection_1">
    <path d="M 88.536392 33.064382 
L 88.536392 182.68419 
L 97.301562 186.148185 
L 106.066732 184.454457 
L 114.831901 184.884978 
L 141.127411 183.870686 
L 149.89258 188.548891 
L 158.65775 181.908738 
L 167.42292 182.189105 
L 176.18809 184.510028 
L 202.483599 181.699047 
L 211.248769 184.855299 
L 220.013939 184.314563 
L 228.779108 188.413646 
L 237.544278 180.869649 
L 263.839787 183.355 
L 272.604957 188.871989 
L 281.370127 183.668295 
L 290.135297 184.686144 
L 298.900467 184.980823 
L 325.195976 185.27391 
L 333.961146 181.696472 
L 342.726315 183.762173 
L 351.491485 184.367814 
L 360.256655 182.121716 
L 386.552164 183.87344 
L 395.317334 184.611285 
L 404.082504 186.709261 
L 412.847674 182.54572 
L 421.612843 183.680601 
L 447.908353 184.856281 
L 456.673522 182.123511 
L 465.438692 182.207184 
L 474.203862 185.050196 
L 482.969032 182.484471 
L 509.264541 184.609077 
L 518.029711 184.44893 
L 526.794881 182.089 
L 535.56005 183.676896 
L 544.32522 181.866724 
L 570.620729 184.278707 
L 579.385899 183.436345 
L 588.151069 182.776762 
L 596.916239 183.080616 
L 605.681408 181.93585 
L 631.976918 186.591048 
L 640.742088 181.995937 
L 649.507257 182.535923 
L 658.272427 183.883767 
L 667.037597 183.575722 
L 693.333106 180.218635 
L 702.098276 182.891976 
L 710.863446 181.607771 
L 719.628615 183.972112 
L 728.393785 183.866458 
L 754.689295 185.424417 
L 763.454464 185.403912 
L 772.219634 182.731104 
L 780.984804 183.408742 
L 789.749974 183.475815 
L 816.045483 183.990258 
L 816.045483 33.246748 
L 816.045483 33.246748 
L 789.749974 36.896756 
L 780.984804 34.002982 
L 772.219634 30.60117 
L 763.454464 31.938565 
L 754.689295 33.624199 
L 728.393785 33.01795 
L 719.628615 34.390735 
L 710.863446 33.664807 
L 702.098276 32.70746 
L 693.333106 33.419191 
L 667.037597 35.671855 
L 658.272427 37.336319 
L 649.507257 31.348094 
L 640.742088 34.286086 
L 631.976918 33.272767 
L 605.681408 31.718378 
L 596.916239 33.012806 
L 588.151069 34.909768 
L 579.385899 32.838267 
L 570.620729 31.076123 
L 544.32522 31.802007 
L 535.56005 31.871488 
L 526.794881 30.299261 
L 518.029711 34.351209 
L 509.264541 36.71422 
L 482.969032 33.606376 
L 474.203862 34.734811 
L 465.438692 33.853156 
L 456.673522 34.527017 
L 447.908353 34.83347 
L 421.612843 33.019805 
L 412.847674 32.898623 
L 404.082504 34.172874 
L 395.317334 31.051302 
L 386.552164 34.141074 
L 360.256655 33.518311 
L 351.491485 33.048285 
L 342.726315 35.582045 
L 333.961146 34.067698 
L 325.195976 32.236786 
L 298.900467 34.319042 
L 290.135297 31.64609 
L 281.370127 33.792885 
L 272.604957 35.157773 
L 263.839787 34.781354 
L 237.544278 34.738049 
L 228.779108 31.70103 
L 220.013939 34.071141 
L 211.248769 35.214401 
L 202.483599 32.930238 
L 176.18809 34.3574 
L 167.42292 31.709079 
L 158.65775 33.901762 
L 149.89258 32.483819 
L 141.127411 31.523525 
L 114.831901 34.642874 
L 106.066732 32.130009 
L 97.301562 33.359339 
L 88.536392 33.064382 
z
" clip-path="url(#p6150458dd9)" style="fill: #1f77b4; fill-opacity: 0.25"/>
   </g>
   <g id="matplotlib.axis_1">
    <g id="xtick_1">
     <g id="line2d_1">
      <path d="M 97.301562 196.800625 
L 97.301562 22.370625 
" clip-path="url(#p6150458dd9)" style="fill: none; stroke: #b0b0b0; stroke-opacity: 0.2; stroke-width: 0.8; stroke-linecap: square"/>
     </g>
     <g id="line2d_2">
      <defs>
       <path id="m66f0986e4f" d="M 0 0 
L 0 3.5 
" style="stroke: #000000; stroke-width: 0.8"/>
      </defs>
      <g>
       <use xlink:href="#m66f0986e4f" x="97.301562" y="196.800625" style="stroke: #000000; stroke-width: 0.8"/>
      </g>
     </g>
    </g>
    <g id="xtick_2">
     <g id="line2d_3">
      <path d="M 220.013939 196.800625 
L 220.013939 22.370625 
" clip-path="url(#p6150458dd9)" style="fill: none; stroke: #b0b0b0; stroke-opacity: 0.2; stroke-width: 0.8; stroke-linecap: square"/>
     </g>
     <g id="line2d_4">
      <g>
       <use xlink:href="#m66f0986e4f" x="220.013939" y="196.800625" style="stroke: #000000; stroke-width: 0.8"/>
      </g>
     </g>
    </g>
    <g id="xtick_3">
     <g id="line2d_5">
      <path d="M 369.021825 196.800625 
L 369.021825 22.370625 
" clip-path="url(#p6150458dd9)" style="fill: none; stroke: #b0b0b0; stroke-opacity: 0.2; stroke-width: 0.8; stroke-linecap: square"/>
     </g>
     <g id="line2d_6">
      <g>
       <use xlink:href="#m66f0986e4f" x="369.021825" y="196.800625" style="stroke: #000000; stroke-width: 0.8"/>
      </g>
     </g>
    </g>
    <g id="xtick_4">
     <g id="line2d_7">
      <path d="M 491.734201 196.800625 
L 491.734201 22.370625 
" clip-path="url(#p6150458dd9)" style="fill: none; stroke: #b0b0b0; stroke-opacity: 0.2; stroke-width: 0.8; stroke-linecap: square"/>
     </g>
     <g id="line2d_8">
      <g>
       <use xlink:href="#m66f0986e4f" x="491.734201" y="196.800625" style="stroke: #000000; stroke-width: 0.8"/>
      </g>
     </g>
    </g>
    <g id="xtick_5">
     <g id="line2d_9">
      <path d="M 631.976918 196.800625 
L 631.976918 22.370625 
" clip-path="url(#p6150458dd9)" style="fill: none; stroke: #b0b0b0; stroke-opacity: 0.2; stroke-width: 0.8; stroke-linecap: square"/>
     </g>
     <g id="line2d_10">
      <g>
       <use xlink:href="#m66f0986e4f" x="631.976918" y="196.800625" style="stroke: #000000; stroke-width: 0.8"/>
      </g>
     </g>
    </g>
    <g id="xtick_6">
     <g id="line2d_11">
      <path d="M 754.689295 196.800625 
L 754.689295 22.370625 
" clip-path="url(#p6150458dd9)" style="fill: none; stroke: #b0b0b0; stroke-opacity: 0.2; stroke-width: 0.8; stroke-linecap: square"/>
     </g>
     <g id="line2d_12">
      <g>
       <use xlink:href="#m66f0986e4f" x="754.689295" y="196.800625" style="stroke: #000000; stroke-width: 0.8"/>
      </g>
     </g>
    </g>
   </g>
   <g id="matplotlib.axis_2">
    <g id="ytick_1">
     <g id="line2d_13">
      <path d="M 52.160938 178.32338 
L 852.420938 178.32338 
" clip-path="url(#p6150458dd9)" style="fill: none; stroke: #b0b0b0; stroke-opacity: 0.2; stroke-width: 0.8; stroke-linecap: square"/>
     </g>
     <g id="line2d_14">
      <defs>
       <path id="m241efa0583" d="M 0 0 
L -3.5 0 
" style="stroke: #000000; stroke-width: 0.8"/>
      </defs>
      <g>
       <use xlink:href="#m241efa0583" x="52.160938" y="178.32338" style="stroke: #000000; stroke-width: 0.8"/>
      </g>
     </g>
     <g id="text_1">
      <!-- −1.5 -->
      <g transform="translate(20.878125 182.122599) scale(0.1 -0.1)">
       <defs>
        <path id="DejaVuSans-2212" d="M 678 2272 
L 4684 2272 
L 4684 1741 
L 678 1741 
L 678 2272 
z
" transform="scale(0.015625)"/>
        <path id="DejaVuSans-31" d="M 794 531 
L 1825 531 
L 1825 4091 
L 703 3866 
L 703 4441 
L 1819 4666 
L 2450 4666 
L 2450 531 
L 3481 531 
L 3481 0 
L 794 0 
L 794 531 
z
" transform="scale(0.015625)"/>
        <path id="DejaVuSans-2e" d="M 684 794 
L 1344 794 
L 1344 0 
L 684 0 
L 684 794 
z
" transform="scale(0.015625)"/>
        <path id="DejaVuSans-35" d="M 691 4666 
L 3169 4666 
L 3169 4134 
L 1269 4134 
L 1269 2991 
Q 1406 3038 1543 3061 
Q 1681 3084 1819 3084 
Q 2600 3084 3056 2656 
Q 3513 2228 3513 1497 
Q 3513 744 3044 326 
Q 2575 -91 1722 -91 
Q 1428 -91 1123 -41 
Q 819 9 494 109 
L 494 744 
Q 775 591 1075 516 
Q 1375 441 1709 441 
Q 2250 441 2565 725 
Q 2881 1009 2881 1497 
Q 2881 1984 2565 2268 
Q 2250 2553 1709 2553 
Q 1456 2553 1204 2497 
Q 953 2441 691 2322 
L 691 4666 
z
" transform="scale(0.015625)"/>
       </defs>
       <use xlink:href="#DejaVuSans-2212"/>
       <use xlink:href="#DejaVuSans-31" transform="translate(83.789062 0)"/>
       <use xlink:href="#DejaVuSans-2e" transform="translate(147.412109 0)"/>
       <use xlink:href="#DejaVuSans-35" transform="translate(179.199219 0)"/>
      </g>
     </g>
    </g>
    <g id="ytick_2">
     <g id="line2d_15">
      <path d="M 52.160938 155.06628 
L 852.420938 155.06628 
" clip-path="url(#p6150458dd9)" style="fill: none; stroke: #b0b0b0; stroke-opacity: 0.2; stroke-width: 0.8; stroke-linecap: square"/>
     </g>
     <g id="line2d_16">
      <g>
       <use xlink:href="#m241efa0583" x="52.160938" y="155.06628" style="stroke: #000000; stroke-width: 0.8"/>
      </g>
     </g>
     <g id="text_2">
      <!-- −1.0 -->
      <g transform="translate(20.878125 158.865499) scale(0.1 -0.1)">
       <defs>
        <path id="DejaVuSans-30" d="M 2034 4250 
Q 1547 4250 1301 3770 
Q 1056 3291 1056 2328 
Q 1056 1369 1301 889 
Q 1547 409 2034 409 
Q 2525 409 2770 889 
Q 3016 1369 3016 2328 
Q 3016 3291 2770 3770 
Q 2525 4250 2034 4250 
z
M 2034 4750 
Q 2819 4750 3233 4129 
Q 3647 3509 3647 2328 
Q 3647 1150 3233 529 
Q 2819 -91 2034 -91 
Q 1250 -91 836 529 
Q 422 1150 422 2328 
Q 422 3509 836 4129 
Q 1250 4750 2034 4750 
z
" transform="scale(0.015625)"/>
       </defs>
       <use xlink:href="#DejaVuSans-2212"/>
       <use xlink:href="#DejaVuSans-31" transform="translate(83.789062 0)"/>
       <use xlink:href="#DejaVuSans-2e" transform="translate(147.412109 0)"/>
       <use xlink:href="#DejaVuSans-30" transform="translate(179.199219 0)"/>
      </g>
     </g>
    </g>
    <g id="ytick_3">
     <g id="line2d_17">
      <path d="M 52.160938 131.80918 
L 852.420938 131.80918 
" clip-path="url(#p6150458dd9)" style="fill: none; stroke: #b0b0b0; stroke-opacity: 0.2; stroke-width: 0.8; stroke-linecap: square"/>
     </g>
     <g id="line2d_18">
      <g>
       <use xlink:href="#m241efa0583" x="52.160938" y="131.80918" style="stroke: #000000; stroke-width: 0.8"/>
      </g>
     </g>
     <g id="text_3">
      <!-- −0.5 -->
      <g transform="translate(20.878125 135.608399) scale(0.1 -0.1)">
       <use xlink:href="#DejaVuSans-2212"/>
       <use xlink:href="#DejaVuSans-30" transform="translate(83.789062 0)"/>
       <use xlink:href="#DejaVuSans-2e" transform="translate(147.412109 0)"/>
       <use xlink:href="#DejaVuSans-35" transform="translate(179.199219 0)"/>
      </g>
     </g>
    </g>
    <g id="ytick_4">
     <g id="line2d_19">
      <path d="M 52.160938 108.55208 
L 852.420938 108.55208 
" clip-path="url(#p6150458dd9)" style="fill: none; stroke: #b0b0b0; stroke-opacity: 0.2; stroke-width: 0.8; stroke-linecap: square"/>
     </g>
     <g id="line2d_20">
      <g>
       <use xlink:href="#m241efa0583" x="52.160938" y="108.55208" style="stroke: #000000; stroke-width: 0.8"/>
      </g>
     </g>
     <g id="text_4">
      <!-- 0.0 -->
      <g transform="translate(29.257813 112.351299) scale(0.1 -0.1)">
       <use xlink:href="#DejaVuSans-30"/>
       <use xlink:href="#DejaVuSans-2e" transform="translate(63.623047 0)"/>
       <use xlink:href="#DejaVuSans-30" transform="translate(95.410156 0)"/>
      </g>
     </g>
    </g>
    <g id="ytick_5">
     <g id="line2d_21">
      <path d="M 52.160938 85.294981 
L 852.420938 85.294981 
" clip-path="url(#p6150458dd9)" style="fill: none; stroke: #b0b0b0; stroke-opacity: 0.2; stroke-width: 0.8; stroke-linecap: square"/>
     </g>
     <g id="line2d_22">
      <g>
       <use xlink:href="#m241efa0583" x="52.160938" y="85.294981" style="stroke: #000000; stroke-width: 0.8"/>
      </g>
     </g>
     <g id="text_5">
      <!-- 0.5 -->
      <g transform="translate(29.257813 89.094199) scale(0.1 -0.1)">
       <use xlink:href="#DejaVuSans-30"/>
       <use xlink:href="#DejaVuSans-2e" transform="translate(63.623047 0)"/>
       <use xlink:href="#DejaVuSans-35" transform="translate(95.410156 0)"/>
      </g>
     </g>
    </g>
    <g id="ytick_6">
     <g id="line2d_23">
      <path d="M 52.160938 62.037881 
L 852.420938 62.037881 
" clip-path="url(#p6150458dd9)" style="fill: none; stroke: #b0b0b0; stroke-opacity: 0.2; stroke-width: 0.8; stroke-linecap: square"/>
     </g>
     <g id="line2d_24">
      <g>
       <use xlink:href="#m241efa0583" x="52.160938" y="62.037881" style="stroke: #000000; stroke-width: 0.8"/>
      </g>
     </g>
     <g id="text_6">
      <!-- 1.0 -->
      <g transform="translate(29.257813 65.837099) scale(0.1 -0.1)">
       <use xlink:href="#DejaVuSans-31"/>
       <use xlink:href="#DejaVuSans-2e" transform="translate(63.623047 0)"/>
       <use xlink:href="#DejaVuSans-30" transform="translate(95.410156 0)"/>
      </g>
     </g>
    </g>
    <g id="ytick_7">
     <g id="line2d_25">
      <path d="M 52.160938 38.780781 
L 852.420938 38.780781 
" clip-path="url(#p6150458dd9)" style="fill: none; stroke: #b0b0b0; stroke-opacity: 0.2; stroke-width: 0.8; stroke-linecap: square"/>
     </g>
     <g id="line2d_26">
      <g>
       <use xlink:href="#m241efa0583" x="52.160938" y="38.780781" style="stroke: #000000; stroke-width: 0.8"/>
      </g>
     </g>
     <g id="text_7">
      <!-- 1.5 -->
      <g transform="translate(29.257813 42.58) scale(0.1 -0.1)">
       <use xlink:href="#DejaVuSans-31"/>
       <use xlink:href="#DejaVuSans-2e" transform="translate(63.623047 0)"/>
       <use xlink:href="#DejaVuSans-35" transform="translate(95.410156 0)"/>
      </g>
     </g>
    </g>
    <g id="text_8">
     <!-- sigmas (z; q50 with q5-q95 band) -->
     <g transform="translate(14.798438 193.869219) rotate(-90) scale(0.1 -0.1)">
      <defs>
       <path id="DejaVuSans-73" d="M 2834 3397 
L 2834 2853 
Q 2591 2978 2328 3040 
Q 2066 3103 1784 3103 
Q 1356 3103 1142 2972 
Q 928 2841 928 2578 
Q 928 2378 1081 2264 
Q 1234 2150 1697 2047 
L 1894 2003 
Q 2506 1872 2764 1633 
Q 3022 1394 3022 966 
Q 3022 478 2636 193 
Q 2250 -91 1575 -91 
Q 1294 -91 989 -36 
Q 684 19 347 128 
L 347 722 
Q 666 556 975 473 
Q 1284 391 1588 391 
Q 1994 391 2212 530 
Q 2431 669 2431 922 
Q 2431 1156 2273 1281 
Q 2116 1406 1581 1522 
L 1381 1569 
Q 847 1681 609 1914 
Q 372 2147 372 2553 
Q 372 3047 722 3315 
Q 1072 3584 1716 3584 
Q 2034 3584 2315 3537 
Q 2597 3491 2834 3397 
z
" transform="scale(0.015625)"/>
       <path id="DejaVuSans-69" d="M 603 3500 
L 1178 3500 
L 1178 0 
L 603 0 
L 603 3500 
z
M 603 4863 
L 1178 4863 
L 1178 4134 
L 603 4134 
L 603 4863 
z
" transform="scale(0.015625)"/>
       <path id="DejaVuSans-67" d="M 2906 1791 
Q 2906 2416 2648 2759 
Q 2391 3103 1925 3103 
Q 1463 3103 1205 2759 
Q 947 2416 947 1791 
Q 947 1169 1205 825 
Q 1463 481 1925 481 
Q 2391 481 2648 825 
Q 2906 1169 2906 1791 
z
M 3481 434 
Q 3481 -459 3084 -895 
Q 2688 -1331 1869 -1331 
Q 1566 -1331 1297 -1286 
Q 1028 -1241 775 -1147 
L 775 -588 
Q 1028 -725 1275 -790 
Q 1522 -856 1778 -856 
Q 2344 -856 2625 -561 
Q 2906 -266 2906 331 
L 2906 616 
Q 2728 306 2450 153 
Q 2172 0 1784 0 
Q 1141 0 747 490 
Q 353 981 353 1791 
Q 353 2603 747 3093 
Q 1141 3584 1784 3584 
Q 2172 3584 2450 3431 
Q 2728 3278 2906 2969 
L 2906 3500 
L 3481 3500 
L 3481 434 
z
" transform="scale(0.015625)"/>
       <path id="DejaVuSans-6d" d="M 3328 2828 
Q 3544 3216 3844 3400 
Q 4144 3584 4550 3584 
Q 5097 3584 5394 3201 
Q 5691 2819 5691 2113 
L 5691 0 
L 5113 0 
L 5113 2094 
Q 5113 2597 4934 2840 
Q 4756 3084 4391 3084 
Q 3944 3084 3684 2787 
Q 3425 2491 3425 1978 
L 3425 0 
L 2847 0 
L 2847 2094 
Q 2847 2600 2669 2842 
Q 2491 3084 2119 3084 
Q 1678 3084 1418 2786 
Q 1159 2488 1159 1978 
L 1159 0 
L 581 0 
L 581 3500 
L 1159 3500 
L 1159 2956 
Q 1356 3278 1631 3431 
Q 1906 3584 2284 3584 
Q 2666 3584 2933 3390 
Q 3200 3197 3328 2828 
z
" transform="scale(0.015625)"/>
       <path id="DejaVuSans-61" d="M 2194 1759 
Q 1497 1759 1228 1600 
Q 959 1441 959 1056 
Q 959 750 1161 570 
Q 1363 391 1709 391 
Q 2188 391 2477 730 
Q 2766 1069 2766 1631 
L 2766 1759 
L 2194 1759 
z
M 3341 1997 
L 3341 0 
L 2766 0 
L 2766 531 
Q 2569 213 2275 61 
Q 1981 -91 1556 -91 
Q 1019 -91 701 211 
Q 384 513 384 1019 
Q 384 1609 779 1909 
Q 1175 2209 1959 2209 
L 2766 2209 
L 2766 2266 
Q 2766 2663 2505 2880 
Q 2244 3097 1772 3097 
Q 1472 3097 1187 3025 
Q 903 2953 641 2809 
L 641 3341 
Q 956 3463 1253 3523 
Q 1550 3584 1831 3584 
Q 2591 3584 2966 3190 
Q 3341 2797 3341 1997 
z
" transform="scale(0.015625)"/>
       <path id="DejaVuSans-20" transform="scale(0.015625)"/>
       <path id="DejaVuSans-28" d="M 1984 4856 
Q 1566 4138 1362 3434 
Q 1159 2731 1159 2009 
Q 1159 1288 1364 580 
Q 1569 -128 1984 -844 
L 1484 -844 
Q 1016 -109 783 600 
Q 550 1309 550 2009 
Q 550 2706 781 3412 
Q 1013 4119 1484 4856 
L 1984 4856 
z
" transform="scale(0.015625)"/>
       <path id="DejaVuSans-7a" d="M 353 3500 
L 3084 3500 
L 3084 2975 
L 922 459 
L 3084 459 
L 3084 0 
L 275 0 
L 275 525 
L 2438 3041 
L 353 3041 
L 353 3500 
z
" transform="scale(0.015625)"/>
       <path id="DejaVuSans-3b" d="M 750 3309 
L 1409 3309 
L 1409 2516 
L 750 2516 
L 750 3309 
z
M 750 794 
L 1409 794 
L 1409 256 
L 897 -744 
L 494 -744 
L 750 256 
L 750 794 
z
" transform="scale(0.015625)"/>
       <path id="DejaVuSans-71" d="M 947 1747 
Q 947 1113 1208 752 
Q 1469 391 1925 391 
Q 2381 391 2643 752 
Q 2906 1113 2906 1747 
Q 2906 2381 2643 2742 
Q 2381 3103 1925 3103 
Q 1469 3103 1208 2742 
Q 947 2381 947 1747 
z
M 2906 525 
Q 2725 213 2448 61 
Q 2172 -91 1784 -91 
Q 1150 -91 751 415 
Q 353 922 353 1747 
Q 353 2572 751 3078 
Q 1150 3584 1784 3584 
Q 2172 3584 2448 3432 
Q 2725 3281 2906 2969 
L 2906 3500 
L 3481 3500 
L 3481 -1331 
L 2906 -1331 
L 2906 525 
z
" transform="scale(0.015625)"/>
       <path id="DejaVuSans-77" d="M 269 3500 
L 844 3500 
L 1563 769 
L 2278 3500 
L 2956 3500 
L 3675 769 
L 4391 3500 
L 4966 3500 
L 4050 0 
L 3372 0 
L 2619 2869 
L 1863 0 
L 1184 0 
L 269 3500 
z
" transform="scale(0.015625)"/>
       <path id="DejaVuSans-74" d="M 1172 4494 
L 1172 3500 
L 2356 3500 
L 2356 3053 
L 1172 3053 
L 1172 1153 
Q 1172 725 1289 603 
Q 1406 481 1766 481 
L 2356 481 
L 2356 0 
L 1766 0 
Q 1100 0 847 248 
Q 594 497 594 1153 
L 594 3053 
L 172 3053 
L 172 3500 
L 594 3500 
L 594 4494 
L 1172 4494 
z
" transform="scale(0.015625)"/>
       <path id="DejaVuSans-68" d="M 3513 2113 
L 3513 0 
L 2938 0 
L 2938 2094 
Q 2938 2591 2744 2837 
Q 2550 3084 2163 3084 
Q 1697 3084 1428 2787 
Q 1159 2491 1159 1978 
L 1159 0 
L 581 0 
L 581 4863 
L 1159 4863 
L 1159 2956 
Q 1366 3272 1645 3428 
Q 1925 3584 2291 3584 
Q 2894 3584 3203 3211 
Q 3513 2838 3513 2113 
z
" transform="scale(0.015625)"/>
       <path id="DejaVuSans-2d" d="M 313 2009 
L 1997 2009 
L 1997 1497 
L 313 1497 
L 313 2009 
z
" transform="scale(0.015625)"/>
       <path id="DejaVuSans-39" d="M 703 97 
L 703 672 
Q 941 559 1184 500 
Q 1428 441 1663 441 
Q 2288 441 2617 861 
Q 2947 1281 2994 2138 
Q 2813 1869 2534 1725 
Q 2256 1581 1919 1581 
Q 1219 1581 811 2004 
Q 403 2428 403 3163 
Q 403 3881 828 4315 
Q 1253 4750 1959 4750 
Q 2769 4750 3195 4129 
Q 3622 3509 3622 2328 
Q 3622 1225 3098 567 
Q 2575 -91 1691 -91 
Q 1453 -91 1209 -44 
Q 966 3 703 97 
z
M 1959 2075 
Q 2384 2075 2632 2365 
Q 2881 2656 2881 3163 
Q 2881 3666 2632 3958 
Q 2384 4250 1959 4250 
Q 1534 4250 1286 3958 
Q 1038 3666 1038 3163 
Q 1038 2656 1286 2365 
Q 1534 2075 1959 2075 
z
" transform="scale(0.015625)"/>
       <path id="DejaVuSans-62" d="M 3116 1747 
Q 3116 2381 2855 2742 
Q 2594 3103 2138 3103 
Q 1681 3103 1420 2742 
Q 1159 2381 1159 1747 
Q 1159 1113 1420 752 
Q 1681 391 2138 391 
Q 2594 391 2855 752 
Q 3116 1113 3116 1747 
z
M 1159 2969 
Q 1341 3281 1617 3432 
Q 1894 3584 2278 3584 
Q 2916 3584 3314 3078 
Q 3713 2572 3713 1747 
Q 3713 922 3314 415 
Q 2916 -91 2278 -91 
Q 1894 -91 1617 61 
Q 1341 213 1159 525 
L 1159 0 
L 581 0 
L 581 4863 
L 1159 4863 
L 1159 2969 
z
" transform="scale(0.015625)"/>
       <path id="DejaVuSans-6e" d="M 3513 2113 
L 3513 0 
L 2938 0 
L 2938 2094 
Q 2938 2591 2744 2837 
Q 2550 3084 2163 3084 
Q 1697 3084 1428 2787 
Q 1159 2491 1159 1978 
L 1159 0 
L 581 0 
L 581 3500 
L 1159 3500 
L 1159 2956 
Q 1366 3272 1645 3428 
Q 1925 3584 2291 3584 
Q 2894 3584 3203 3211 
Q 3513 2838 3513 2113 
z
" transform="scale(0.015625)"/>
       <path id="DejaVuSans-64" d="M 2906 2969 
L 2906 4863 
L 3481 4863 
L 3481 0 
L 2906 0 
L 2906 525 
Q 2725 213 2448 61 
Q 2172 -91 1784 -91 
Q 1150 -91 751 415 
Q 353 922 353 1747 
Q 353 2572 751 3078 
Q 1150 3584 1784 3584 
Q 2172 3584 2448 3432 
Q 2725 3281 2906 2969 
z
M 947 1747 
Q 947 1113 1208 752 
Q 1469 391 1925 391 
Q 2381 391 2643 752 
Q 2906 1113 2906 1747 
Q 2906 2381 2643 2742 
Q 2381 3103 1925 3103 
Q 1469 3103 1208 2742 
Q 947 2381 947 1747 
z
" transform="scale(0.015625)"/>
       <path id="DejaVuSans-29" d="M 513 4856 
L 1013 4856 
Q 1481 4119 1714 3412 
Q 1947 2706 1947 2009 
Q 1947 1309 1714 600 
Q 1481 -109 1013 -844 
L 513 -844 
Q 928 -128 1133 580 
Q 1338 1288 1338 2009 
Q 1338 2731 1133 3434 
Q 928 4138 513 4856 
z
" transform="scale(0.015625)"/>
      </defs>
      <use xlink:href="#DejaVuSans-73"/>
      <use xlink:href="#DejaVuSans-69" transform="translate(52.099609 0)"/>
      <use xlink:href="#DejaVuSans-67" transform="translate(79.882812 0)"/>
      <use xlink:href="#DejaVuSans-6d" transform="translate(143.359375 0)"/>
      <use xlink:href="#DejaVuSans-61" transform="translate(240.771484 0)"/>
      <use xlink:href="#DejaVuSans-73" transform="translate(302.050781 0)"/>
      <use xlink:href="#DejaVuSans-20" transform="translate(354.150391 0)"/>
      <use xlink:href="#DejaVuSans-28" transform="translate(385.9375 0)"/>
      <use xlink:href="#DejaVuSans-7a" transform="translate(424.951172 0)"/>
      <use xlink:href="#DejaVuSans-3b" transform="translate(477.441406 0)"/>
      <use xlink:href="#DejaVuSans-20" transform="translate(511.132812 0)"/>
      <use xlink:href="#DejaVuSans-71" transform="translate(542.919922 0)"/>
      <use xlink:href="#DejaVuSans-35" transform="translate(606.396484 0)"/>
      <use xlink:href="#DejaVuSans-30" transform="translate(670.019531 0)"/>
      <use xlink:href="#DejaVuSans-20" transform="translate(733.642578 0)"/>
      <use xlink:href="#DejaVuSans-77" transform="translate(765.429688 0)"/>
      <use xlink:href="#DejaVuSans-69" transform="translate(847.216797 0)"/>
      <use xlink:href="#DejaVuSans-74" transform="translate(875 0)"/>
      <use xlink:href="#DejaVuSans-68" transform="translate(914.208984 0)"/>
      <use xlink:href="#DejaVuSans-20" transform="translate(977.587891 0)"/>
      <use xlink:href="#DejaVuSans-71" transform="translate(1009.375 0)"/>
      <use xlink:href="#DejaVuSans-35" transform="translate(1072.851562 0)"/>
      <use xlink:href="#DejaVuSans-2d" transform="translate(1136.474609 0)"/>
      <use xlink:href="#DejaVuSans-71" transform="translate(1172.558594 0)"/>
      <use xlink:href="#DejaVuSans-39" transform="translate(1236.035156 0)"/>
      <use xlink:href="#DejaVuSans-35" transform="translate(1299.658203 0)"/>
      <use xlink:href="#DejaVuSans-20" transform="translate(1363.28125 0)"/>
      <use xlink:href="#DejaVuSans-62" transform="translate(1395.068359 0)"/>
      <use xlink:href="#DejaVuSans-61" transform="translate(1458.544922 0)"/>
      <use xlink:href="#DejaVuSans-6e" transform="translate(1519.824219 0)"/>
      <use xlink:href="#DejaVuSans-64" transform="translate(1583.203125 0)"/>
      <use xlink:href="#DejaVuSans-29" transform="translate(1646.679688 0)"/>
     </g>
    </g>
   </g>
   <g id="line2d_27">
    <path d="M 88.536392 108.384618 
L 97.301562 107.857709 
L 106.066732 109.272582 
L 114.831901 109.050134 
L 141.127411 108.90223 
L 149.89258 109.101593 
L 158.65775 108.618919 
L 167.42292 108.069441 
L 176.18809 108.591719 
L 202.483599 107.495227 
L 211.248769 108.748476 
L 220.013939 108.64259 
L 228.779108 108.191258 
L 237.544278 107.517705 
L 263.839787 108.283723 
L 272.604957 109.74089 
L 281.370127 109.795237 
L 290.135297 109.710814 
L 298.900467 108.885773 
L 325.195976 109.437117 
L 333.961146 108.415484 
L 342.726315 110.004794 
L 351.491485 107.448238 
L 360.256655 108.447738 
L 386.552164 108.424625 
L 395.317334 108.597249 
L 404.082504 109.98323 
L 412.847674 109.235607 
L 421.612843 109.170042 
L 447.908353 109.467791 
L 456.673522 108.353289 
L 465.438692 107.883447 
L 474.203862 109.304519 
L 482.969032 108.827994 
L 509.264541 108.971857 
L 518.029711 107.876785 
L 526.794881 107.144821 
L 535.56005 110.03133 
L 544.32522 107.757088 
L 570.620729 109.10082 
L 579.385899 108.733217 
L 588.151069 109.61149 
L 596.916239 109.695508 
L 605.681408 108.556352 
L 631.976918 109.348846 
L 640.742088 108.651622 
L 649.507257 107.878089 
L 658.272427 110.49933 
L 667.037597 108.189946 
L 693.333106 108.876172 
L 702.098276 107.742674 
L 710.863446 108.747139 
L 719.628615 107.963634 
L 728.393785 108.812234 
L 754.689295 109.033441 
L 763.454464 107.959704 
L 772.219634 107.632785 
L 780.984804 107.804946 
L 789.749974 110.271649 
L 816.045483 107.914199 
" clip-path="url(#p6150458dd9)" style="fill: none; stroke: #1f77b4; stroke-width: 1.4; stroke-linecap: square"/>
   </g>
   <g id="patch_3">
    <path d="M 52.160938 196.800625 
L 52.160938 22.370625 
" style="fill: none; stroke: #000000; stroke-width: 0.8; stroke-linejoin: miter; stroke-linecap: square"/>
   </g>
   <g id="patch_4">
    <path d="M 852.420938 196.800625 
L 852.420938 22.370625 
" style="fill: none; stroke: #000000; stroke-width: 0.8; stroke-linejoin: miter; stroke-linecap: square"/>
   </g>
   <g id="patch_5">
    <path d="M 52.160938 196.800625 
L 852.420938 196.800625 
" style="fill: none; stroke: #000000; stroke-width: 0.8; stroke-linejoin: miter; stroke-linecap: square"/>
   </g>
   <g id="patch_6">
    <path d="M 52.160938 22.370625 
L 852.420938 22.370625 
" style="fill: none; stroke: #000000; stroke-width: 0.8; stroke-linejoin: miter; stroke-linecap: square"/>
   </g>
   <g id="text_9">
    <!-- latest | ESP | banking_system | block aggregate quantile bands -->
    <g transform="translate(262.788437 16.370625) scale(0.12 -0.12)">
     <defs>
      <path id="DejaVuSans-6c" d="M 603 4863 
L 1178 4863 
L 1178 0 
L 603 0 
L 603 4863 
z
" transform="scale(0.015625)"/>
      <path id="DejaVuSans-65" d="M 3597 1894 
L 3597 1613 
L 953 1613 
Q 991 1019 1311 708 
Q 1631 397 2203 397 
Q 2534 397 2845 478 
Q 3156 559 3463 722 
L 3463 178 
Q 3153 47 2828 -22 
Q 2503 -91 2169 -91 
Q 1331 -91 842 396 
Q 353 884 353 1716 
Q 353 2575 817 3079 
Q 1281 3584 2069 3584 
Q 2775 3584 3186 3129 
Q 3597 2675 3597 1894 
z
M 3022 2063 
Q 3016 2534 2758 2815 
Q 2500 3097 2075 3097 
Q 1594 3097 1305 2825 
Q 1016 2553 972 2059 
L 3022 2063 
z
" transform="scale(0.015625)"/>
      <path id="DejaVuSans-7c" d="M 1344 4891 
L 1344 -1509 
L 813 -1509 
L 813 4891 
L 1344 4891 
z
" transform="scale(0.015625)"/>
      <path id="DejaVuSans-45" d="M 628 4666 
L 3578 4666 
L 3578 4134 
L 1259 4134 
L 1259 2753 
L 3481 2753 
L 3481 2222 
L 1259 2222 
L 1259 531 
L 3634 531 
L 3634 0 
L 628 0 
L 628 4666 
z
" transform="scale(0.015625)"/>
      <path id="DejaVuSans-53" d="M 3425 4513 
L 3425 3897 
Q 3066 4069 2747 4153 
Q 2428 4238 2131 4238 
Q 1616 4238 1336 4038 
Q 1056 3838 1056 3469 
Q 1056 3159 1242 3001 
Q 1428 2844 1947 2747 
L 2328 2669 
Q 3034 2534 3370 2195 
Q 3706 1856 3706 1288 
Q 3706 609 3251 259 
Q 2797 -91 1919 -91 
Q 1588 -91 1214 -16 
Q 841 59 441 206 
L 441 856 
Q 825 641 1194 531 
Q 1563 422 1919 422 
Q 2459 422 2753 634 
Q 3047 847 3047 1241 
Q 3047 1584 2836 1778 
Q 2625 1972 2144 2069 
L 1759 2144 
Q 1053 2284 737 2584 
Q 422 2884 422 3419 
Q 422 4038 858 4394 
Q 1294 4750 2059 4750 
Q 2388 4750 2728 4690 
Q 3069 4631 3425 4513 
z
" transform="scale(0.015625)"/>
      <path id="DejaVuSans-50" d="M 1259 4147 
L 1259 2394 
L 2053 2394 
Q 2494 2394 2734 2622 
Q 2975 2850 2975 3272 
Q 2975 3691 2734 3919 
Q 2494 4147 2053 4147 
L 1259 4147 
z
M 628 4666 
L 2053 4666 
Q 2838 4666 3239 4311 
Q 3641 3956 3641 3272 
Q 3641 2581 3239 2228 
Q 2838 1875 2053 1875 
L 1259 1875 
L 1259 0 
L 628 0 
L 628 4666 
z
" transform="scale(0.015625)"/>
      <path id="DejaVuSans-6b" d="M 581 4863 
L 1159 4863 
L 1159 1991 
L 2875 3500 
L 3609 3500 
L 1753 1863 
L 3688 0 
L 2938 0 
L 1159 1709 
L 1159 0 
L 581 0 
L 581 4863 
z
" transform="scale(0.015625)"/>
      <path id="DejaVuSans-5f" d="M 3263 -1063 
L 3263 -1509 
L -63 -1509 
L -63 -1063 
L 3263 -1063 
z
" transform="scale(0.015625)"/>
      <path id="DejaVuSans-79" d="M 2059 -325 
Q 1816 -950 1584 -1140 
Q 1353 -1331 966 -1331 
L 506 -1331 
L 506 -850 
L 844 -850 
Q 1081 -850 1212 -737 
Q 1344 -625 1503 -206 
L 1606 56 
L 191 3500 
L 800 3500 
L 1894 763 
L 2988 3500 
L 3597 3500 
L 2059 -325 
z
" transform="scale(0.015625)"/>
      <path id="DejaVuSans-6f" d="M 1959 3097 
Q 1497 3097 1228 2736 
Q 959 2375 959 1747 
Q 959 1119 1226 758 
Q 1494 397 1959 397 
Q 2419 397 2687 759 
Q 2956 1122 2956 1747 
Q 2956 2369 2687 2733 
Q 2419 3097 1959 3097 
z
M 1959 3584 
Q 2709 3584 3137 3096 
Q 3566 2609 3566 1747 
Q 3566 888 3137 398 
Q 2709 -91 1959 -91 
Q 1206 -91 779 398 
Q 353 888 353 1747 
Q 353 2609 779 3096 
Q 1206 3584 1959 3584 
z
" transform="scale(0.015625)"/>
      <path id="DejaVuSans-63" d="M 3122 3366 
L 3122 2828 
Q 2878 2963 2633 3030 
Q 2388 3097 2138 3097 
Q 1578 3097 1268 2742 
Q 959 2388 959 1747 
Q 959 1106 1268 751 
Q 1578 397 2138 397 
Q 2388 397 2633 464 
Q 2878 531 3122 666 
L 3122 134 
Q 2881 22 2623 -34 
Q 2366 -91 2075 -91 
Q 1284 -91 818 406 
Q 353 903 353 1747 
Q 353 2603 823 3093 
Q 1294 3584 2113 3584 
Q 2378 3584 2631 3529 
Q 2884 3475 3122 3366 
z
" transform="scale(0.015625)"/>
      <path id="DejaVuSans-72" d="M 2631 2963 
Q 2534 3019 2420 3045 
Q 2306 3072 2169 3072 
Q 1681 3072 1420 2755 
Q 1159 2438 1159 1844 
L 1159 0 
L 581 0 
L 581 3500 
L 1159 3500 
L 1159 2956 
Q 1341 3275 1631 3429 
Q 1922 3584 2338 3584 
Q 2397 3584 2469 3576 
Q 2541 3569 2628 3553 
L 2631 2963 
z
" transform="scale(0.015625)"/>
      <path id="DejaVuSans-75" d="M 544 1381 
L 544 3500 
L 1119 3500 
L 1119 1403 
Q 1119 906 1312 657 
Q 1506 409 1894 409 
Q 2359 409 2629 706 
Q 2900 1003 2900 1516 
L 2900 3500 
L 3475 3500 
L 3475 0 
L 2900 0 
L 2900 538 
Q 2691 219 2414 64 
Q 2138 -91 1772 -91 
Q 1169 -91 856 284 
Q 544 659 544 1381 
z
M 1991 3584 
L 1991 3584 
z
" transform="scale(0.015625)"/>
     </defs>
     <use xlink:href="#DejaVuSans-6c"/>
     <use xlink:href="#DejaVuSans-61" transform="translate(27.783203 0)"/>
     <use xlink:href="#DejaVuSans-74" transform="translate(89.0625 0)"/>
     <use xlink:href="#DejaVuSans-65" transform="translate(128.271484 0)"/>
     <use xlink:href="#DejaVuSans-73" transform="translate(189.794922 0)"/>
     <use xlink:href="#DejaVuSans-74" transform="translate(241.894531 0)"/>
     <use xlink:href="#DejaVuSans-20" transform="translate(281.103516 0)"/>
     <use xlink:href="#DejaVuSans-7c" transform="translate(312.890625 0)"/>
     <use xlink:href="#DejaVuSans-20" transform="translate(346.582031 0)"/>
     <use xlink:href="#DejaVuSans-45" transform="translate(378.369141 0)"/>
     <use xlink:href="#DejaVuSans-53" transform="translate(441.552734 0)"/>
     <use xlink:href="#DejaVuSans-50" transform="translate(505.029297 0)"/>
     <use xlink:href="#DejaVuSans-20" transform="translate(565.332031 0)"/>
     <use xlink:href="#DejaVuSans-7c" transform="translate(597.119141 0)"/>
     <use xlink:href="#DejaVuSans-20" transform="translate(630.810547 0)"/>
     <use xlink:href="#DejaVuSans-62" transform="translate(662.597656 0)"/>
     <use xlink:href="#DejaVuSans-61" transform="translate(726.074219 0)"/>
     <use xlink:href="#DejaVuSans-6e" transform="translate(787.353516 0)"/>
     <use xlink:href="#DejaVuSans-6b" transform="translate(850.732422 0)"/>
     <use xlink:href="#DejaVuSans-69" transform="translate(908.642578 0)"/>
     <use xlink:href="#DejaVuSans-6e" transform="translate(936.425781 0)"/>
     <use xlink:href="#DejaVuSans-67" transform="translate(999.804688 0)"/>
     <use xlink:href="#DejaVuSans-5f" transform="translate(1063.28125 0)"/>
     <use xlink:href="#DejaVuSans-73" transform="translate(1113.28125 0)"/>
     <use xlink:href="#DejaVuSans-79" transform="translate(1165.380859 0)"/>
     <use xlink:href="#DejaVuSans-73" transform="translate(1224.560547 0)"/>
     <use xlink:href="#DejaVuSans-74" transform="translate(1276.660156 0)"/>
     <use xlink:href="#DejaVuSans-65" transform="translate(1315.869141 0)"/>
     <use xlink:href="#DejaVuSans-6d" transform="translate(1377.392578 0)"/>
     <use xlink:href="#DejaVuSans-20" transform="translate(1474.804688 0)"/>
     <use xlink:href="#DejaVuSans-7c" transform="translate(1506.591797 0)"/>
     <use xlink:href="#DejaVuSans-20" transform="translate(1540.283203 0)"/>
     <use xlink:href="#DejaVuSans-62" transform="translate(1572.070312 0)"/>
     <use xlink:href="#DejaVuSans-6c" transform="translate(1635.546875 0)"/>
     <use xlink:href="#DejaVuSans-6f" transform="translate(1663.330078 0)"/>
     <use xlink:href="#DejaVuSans-63" transform="translate(1724.511719 0)"/>
     <use xlink:href="#DejaVuSans-6b" transform="translate(1779.492188 0)"/>
     <use xlink:href="#DejaVuSans-20" transform="translate(1837.402344 0)"/>
     <use xlink:href="#DejaVuSans-61" transform="translate(1869.189453 0)"/>
     <use xlink:href="#DejaVuSans-67" transform="translate(1930.46875 0)"/>
     <use xlink:href="#DejaVuSans-67" transform="translate(1993.945312 0)"/>
     <use xlink:href="#DejaVuSans-72" transform="translate(2057.421875 0)"/>
     <use xlink:href="#DejaVuSans-65" transform="translate(2096.285156 0)"/>
     <use xlink:href="#DejaVuSans-67" transform="translate(2157.808594 0)"/>
     <use xlink:href="#DejaVuSans-61" transform="translate(2221.285156 0)"/>
     <use xlink:href="#DejaVuSans-74" transform="translate(2282.564453 0)"/>
     <use xlink:href="#DejaVuSans-65" transform="translate(2321.773438 0)"/>
     <use xlink:href="#DejaVuSans-20" transform="translate(2383.296875 0)"/>
     <use xlink:href="#DejaVuSans-71" transform="translate(2415.083984 0)"/>
     <use xlink:href="#DejaVuSans-75" transform="translate(2478.560547 0)"/>
     <use xlink:href="#DejaVuSans-61" transform="translate(2541.939453 0)"/>
     <use xlink:href="#DejaVuSans-6e" transform="translate(2603.21875 0)"/>
     <use xlink:href="#DejaVuSans-74" transform="translate(2666.597656 0)"/>
     <use xlink:href="#DejaVuSans-69" transform="translate(2705.806641 0)"/>
     <use xlink:href="#DejaVuSans-6c" transform="translate(2733.589844 0)"/>
     <use xlink:href="#DejaVuSans-65" transform="translate(2761.373047 0)"/>
     <use xlink:href="#DejaVuSans-20" transform="translate(2822.896484 0)"/>
     <use xlink:href="#DejaVuSans-62" transform="translate(2854.683594 0)"/>
     <use xlink:href="#DejaVuSans-61" transform="translate(2918.160156 0)"/>
     <use xlink:href="#DejaVuSans-6e" transform="translate(2979.439453 0)"/>
     <use xlink:href="#DejaVuSans-64" transform="translate(3042.818359 0)"/>
     <use xlink:href="#DejaVuSans-73" transform="translate(3106.294922 0)"/>
    </g>
   </g>
   <g id="legend_1">
    <g id="patch_7">
     <path d="M 57.760938 52.255625 
L 137.393438 52.255625 
Q 138.993437 52.255625 138.993437 50.655625 
L 138.993437 27.970625 
Q 138.993437 26.370625 137.393438 26.370625 
L 57.760938 26.370625 
Q 56.160938 26.370625 56.160938 27.970625 
L 56.160938 50.655625 
Q 56.160938 52.255625 57.760938 52.255625 
z
" style="fill: #ffffff; opacity: 0.8; stroke: #cccccc; stroke-linejoin: miter"/>
    </g>
    <g id="patch_8">
     <path d="M 59.360938 35.649375 
L 75.360938 35.649375 
L 75.360938 30.049375 
L 59.360938 30.049375 
z
" style="fill: #1f77b4; fill-opacity: 0.25"/>
    </g>
    <g id="text_10">
     <!-- q5-q95 band -->
     <g transform="translate(81.760938 35.649375) scale(0.08 -0.08)">
      <use xlink:href="#DejaVuSans-71"/>
      <use xlink:href="#DejaVuSans-35" transform="translate(63.476562 0)"/>
      <use xlink:href="#DejaVuSans-2d" transform="translate(127.099609 0)"/>
      <use xlink:href="#DejaVuSans-71" transform="translate(163.183594 0)"/>
      <use xlink:href="#DejaVuSans-39" transform="translate(226.660156 0)"/>
      <use xlink:href="#DejaVuSans-35" transform="translate(290.283203 0)"/>
      <use xlink:href="#DejaVuSans-20" transform="translate(353.90625 0)"/>
      <use xlink:href="#DejaVuSans-62" transform="translate(385.693359 0)"/>
      <use xlink:href="#DejaVuSans-61" transform="translate(449.169922 0)"/>
      <use xlink:href="#DejaVuSans-6e" transform="translate(510.449219 0)"/>
      <use xlink:href="#DejaVuSans-64" transform="translate(573.828125 0)"/>
     </g>
    </g>
    <g id="line2d_28">
     <path d="M 59.360938 44.591875 
L 67.360938 44.591875 
L 75.360938 44.591875 
" style="fill: none; stroke: #1f77b4; stroke-width: 1.4; stroke-linecap: square"/>
    </g>
    <g id="text_11">
     <!-- median (q50) -->
     <g transform="translate(81.760938 47.391875) scale(0.08 -0.08)">
      <use xlink:href="#DejaVuSans-6d"/>
      <use xlink:href="#DejaVuSans-65" transform="translate(97.412109 0)"/>
      <use xlink:href="#DejaVuSans-64" transform="translate(158.935547 0)"/>
      <use xlink:href="#DejaVuSans-69" transform="translate(222.412109 0)"/>
      <use xlink:href="#DejaVuSans-61" transform="translate(250.195312 0)"/>
      <use xlink:href="#DejaVuSans-6e" transform="translate(311.474609 0)"/>
      <use xlink:href="#DejaVuSans-20" transform="translate(374.853516 0)"/>
      <use xlink:href="#DejaVuSans-28" transform="translate(406.640625 0)"/>
      <use xlink:href="#DejaVuSans-71" transform="translate(445.654297 0)"/>
      <use xlink:href="#DejaVuSans-35" transform="translate(509.130859 0)"/>
      <use xlink:href="#DejaVuSans-30" transform="translate(572.753906 0)"/>
      <use xlink:href="#DejaVuSans-29" transform="translate(636.376953 0)"/>
     </g>
    </g>
   </g>
  </g>
  <g id="axes_2">
   <g id="patch_9">
    <path d="M 52.160938 385.530625 
L 852.420938 385.530625 
L 852.420938 211.100625 
L 52.160938 211.100625 
z
" style="fill: #ffffff"/>
   </g>
   <g id="FillBetweenPolyCollection_2">
    <path d="M 88.536392 286.922128 
L 88.536392 306.781508 
L 97.301562 311.401103 
L 106.066732 314.653886 
L 114.831901 317.319195 
L 141.127411 320.046924 
L 149.89258 322.02683 
L 158.65775 323.843876 
L 167.42292 325.443208 
L 176.18809 327.277412 
L 202.483599 329.778554 
L 211.248769 331.28409 
L 220.013939 333.411019 
L 228.779108 334.358256 
L 237.544278 336.336351 
L 263.839787 337.414189 
L 272.604957 338.870938 
L 281.370127 340.271954 
L 290.135297 341.088026 
L 298.900467 342.517094 
L 325.195976 342.975375 
L 333.961146 345.038628 
L 342.726315 345.860905 
L 351.491485 347.53139 
L 360.256655 348.060364 
L 386.552164 349.020367 
L 395.317334 350.609368 
L 404.082504 351.689679 
L 412.847674 352.777727 
L 421.612843 352.634939 
L 447.908353 355.563388 
L 456.673522 356.203057 
L 465.438692 356.90953 
L 474.203862 358.104049 
L 482.969032 358.897774 
L 509.264541 360.321886 
L 518.029711 360.148843 
L 526.794881 361.106794 
L 535.56005 360.722968 
L 544.32522 362.386223 
L 570.620729 362.936533 
L 579.385899 364.140575 
L 588.151069 363.963617 
L 596.916239 365.876351 
L 605.681408 366.226423 
L 631.976918 366.391799 
L 640.742088 367.559032 
L 649.507257 368.191397 
L 658.272427 370.178558 
L 667.037597 371.642384 
L 693.333106 372.749055 
L 702.098276 372.871413 
L 710.863446 373.244261 
L 719.628615 373.827078 
L 728.393785 375.191353 
L 754.689295 375.733765 
L 763.454464 374.685812 
L 772.219634 375.225054 
L 780.984804 375.536829 
L 789.749974 376.694234 
L 816.045483 377.601989 
L 816.045483 219.029261 
L 816.045483 219.029261 
L 789.749974 219.625434 
L 780.984804 220.45837 
L 772.219634 221.698632 
L 763.454464 222.430903 
L 754.689295 223.376369 
L 728.393785 223.440455 
L 719.628615 223.710048 
L 710.863446 224.108815 
L 702.098276 224.362854 
L 693.333106 225.458501 
L 667.037597 225.654417 
L 658.272427 227.405634 
L 649.507257 225.979651 
L 640.742088 228.46145 
L 631.976918 229.418672 
L 605.681408 229.097718 
L 596.916239 230.352248 
L 588.151069 231.838283 
L 579.385899 233.329869 
L 570.620729 233.18054 
L 544.32522 234.748694 
L 535.56005 235.782575 
L 526.794881 235.986993 
L 518.029711 236.828723 
L 509.264541 237.7975 
L 482.969032 238.263394 
L 474.203862 238.499957 
L 465.438692 239.523308 
L 456.673522 239.985628 
L 447.908353 241.147615 
L 421.612843 242.278813 
L 412.847674 243.31292 
L 404.082504 243.977314 
L 395.317334 245.548126 
L 386.552164 245.896505 
L 360.256655 246.834215 
L 351.491485 247.614194 
L 342.726315 248.780497 
L 333.961146 250.917897 
L 325.195976 250.937677 
L 298.900467 252.493815 
L 290.135297 253.520007 
L 281.370127 254.312092 
L 272.604957 255.982569 
L 263.839787 257.836954 
L 237.544278 258.971153 
L 228.779108 260.474676 
L 220.013939 261.984932 
L 211.248769 263.229803 
L 202.483599 264.425708 
L 176.18809 266.275562 
L 167.42292 268.094593 
L 158.65775 270.317238 
L 149.89258 272.047042 
L 141.127411 274.851841 
L 114.831901 277.07607 
L 106.066732 279.581465 
L 97.301562 282.838738 
L 88.536392 286.922128 
z
" clip-path="url(#pe65cc8e28d)" style="fill: #1f77b4; fill-opacity: 0.25"/>
   </g>
   <g id="matplotlib.axis_3">
    <g id="xtick_7">
     <g id="line2d_29">
      <path d="M 97.301562 385.530625 
L 97.301562 211.100625 
" clip-path="url(#pe65cc8e28d)" style="fill: none; stroke: #b0b0b0; stroke-opacity: 0.2; stroke-width: 0.8; stroke-linecap: square"/>
     </g>
     <g id="line2d_30">
      <g>
       <use xlink:href="#m66f0986e4f" x="97.301562" y="385.530625" style="stroke: #000000; stroke-width: 0.8"/>
      </g>
     </g>
     <g id="text_12">
      <!-- 2025-10-01 -->
      <g transform="translate(68.243749 400.129062) scale(0.1 -0.1)">
       <defs>
        <path id="DejaVuSans-32" d="M 1228 531 
L 3431 531 
L 3431 0 
L 469 0 
L 469 531 
Q 828 903 1448 1529 
Q 2069 2156 2228 2338 
Q 2531 2678 2651 2914 
Q 2772 3150 2772 3378 
Q 2772 3750 2511 3984 
Q 2250 4219 1831 4219 
Q 1534 4219 1204 4116 
Q 875 4013 500 3803 
L 500 4441 
Q 881 4594 1212 4672 
Q 1544 4750 1819 4750 
Q 2544 4750 2975 4387 
Q 3406 4025 3406 3419 
Q 3406 3131 3298 2873 
Q 3191 2616 2906 2266 
Q 2828 2175 2409 1742 
Q 1991 1309 1228 531 
z
" transform="scale(0.015625)"/>
       </defs>
       <use xlink:href="#DejaVuSans-32"/>
       <use xlink:href="#DejaVuSans-30" transform="translate(63.623047 0)"/>
       <use xlink:href="#DejaVuSans-32" transform="translate(127.246094 0)"/>
       <use xlink:href="#DejaVuSans-35" transform="translate(190.869141 0)"/>
       <use xlink:href="#DejaVuSans-2d" transform="translate(254.492188 0)"/>
       <use xlink:href="#DejaVuSans-31" transform="translate(290.576172 0)"/>
       <use xlink:href="#DejaVuSans-30" transform="translate(354.199219 0)"/>
       <use xlink:href="#DejaVuSans-2d" transform="translate(417.822266 0)"/>
       <use xlink:href="#DejaVuSans-30" transform="translate(453.90625 0)"/>
       <use xlink:href="#DejaVuSans-31" transform="translate(517.529297 0)"/>
      </g>
     </g>
    </g>
    <g id="xtick_8">
     <g id="line2d_31">
      <path d="M 220.013939 385.530625 
L 220.013939 211.100625 
" clip-path="url(#pe65cc8e28d)" style="fill: none; stroke: #b0b0b0; stroke-opacity: 0.2; stroke-width: 0.8; stroke-linecap: square"/>
     </g>
     <g id="line2d_32">
      <g>
       <use xlink:href="#m66f0986e4f" x="220.013939" y="385.530625" style="stroke: #000000; stroke-width: 0.8"/>
      </g>
     </g>
     <g id="text_13">
      <!-- 2025-10-15 -->
      <g transform="translate(190.956126 400.129062) scale(0.1 -0.1)">
       <use xlink:href="#DejaVuSans-32"/>
       <use xlink:href="#DejaVuSans-30" transform="translate(63.623047 0)"/>
       <use xlink:href="#DejaVuSans-32" transform="translate(127.246094 0)"/>
       <use xlink:href="#DejaVuSans-35" transform="translate(190.869141 0)"/>
       <use xlink:href="#DejaVuSans-2d" transform="translate(254.492188 0)"/>
       <use xlink:href="#DejaVuSans-31" transform="translate(290.576172 0)"/>
       <use xlink:href="#DejaVuSans-30" transform="translate(354.199219 0)"/>
       <use xlink:href="#DejaVuSans-2d" transform="translate(417.822266 0)"/>
       <use xlink:href="#DejaVuSans-31" transform="translate(453.90625 0)"/>
       <use xlink:href="#DejaVuSans-35" transform="translate(517.529297 0)"/>
      </g>
     </g>
    </g>
    <g id="xtick_9">
     <g id="line2d_33">
      <path d="M 369.021825 385.530625 
L 369.021825 211.100625 
" clip-path="url(#pe65cc8e28d)" style="fill: none; stroke: #b0b0b0; stroke-opacity: 0.2; stroke-width: 0.8; stroke-linecap: square"/>
     </g>
     <g id="line2d_34">
      <g>
       <use xlink:href="#m66f0986e4f" x="369.021825" y="385.530625" style="stroke: #000000; stroke-width: 0.8"/>
      </g>
     </g>
     <g id="text_14">
      <!-- 2025-11-01 -->
      <g transform="translate(339.964012 400.129062) scale(0.1 -0.1)">
       <use xlink:href="#DejaVuSans-32"/>
       <use xlink:href="#DejaVuSans-30" transform="translate(63.623047 0)"/>
       <use xlink:href="#DejaVuSans-32" transform="translate(127.246094 0)"/>
       <use xlink:href="#DejaVuSans-35" transform="translate(190.869141 0)"/>
       <use xlink:href="#DejaVuSans-2d" transform="translate(254.492188 0)"/>
       <use xlink:href="#DejaVuSans-31" transform="translate(290.576172 0)"/>
       <use xlink:href="#DejaVuSans-31" transform="translate(354.199219 0)"/>
       <use xlink:href="#DejaVuSans-2d" transform="translate(417.822266 0)"/>
       <use xlink:href="#DejaVuSans-30" transform="translate(453.90625 0)"/>
       <use xlink:href="#DejaVuSans-31" transform="translate(517.529297 0)"/>
      </g>
     </g>
    </g>
    <g id="xtick_10">
     <g id="line2d_35">
      <path d="M 491.734201 385.530625 
L 491.734201 211.100625 
" clip-path="url(#pe65cc8e28d)" style="fill: none; stroke: #b0b0b0; stroke-opacity: 0.2; stroke-width: 0.8; stroke-linecap: square"/>
     </g>
     <g id="line2d_36">
      <g>
       <use xlink:href="#m66f0986e4f" x="491.734201" y="385.530625" style="stroke: #000000; stroke-width: 0.8"/>
      </g>
     </g>
     <g id="text_15">
      <!-- 2025-11-15 -->
      <g transform="translate(462.676389 400.129062) scale(0.1 -0.1)">
       <use xlink:href="#DejaVuSans-32"/>
       <use xlink:href="#DejaVuSans-30" transform="translate(63.623047 0)"/>
       <use xlink:href="#DejaVuSans-32" transform="translate(127.246094 0)"/>
       <use xlink:href="#DejaVuSans-35" transform="translate(190.869141 0)"/>
       <use xlink:href="#DejaVuSans-2d" transform="translate(254.492188 0)"/>
       <use xlink:href="#DejaVuSans-31" transform="translate(290.576172 0)"/>
       <use xlink:href="#DejaVuSans-31" transform="translate(354.199219 0)"/>
       <use xlink:href="#DejaVuSans-2d" transform="translate(417.822266 0)"/>
       <use xlink:href="#DejaVuSans-31" transform="translate(453.90625 0)"/>
       <use xlink:href="#DejaVuSans-35" transform="translate(517.529297 0)"/>
      </g>
     </g>
    </g>
    <g id="xtick_11">
     <g id="line2d_37">
      <path d="M 631.976918 385.530625 
L 631.976918 211.100625 
" clip-path="url(#pe65cc8e28d)" style="fill: none; stroke: #b0b0b0; stroke-opacity: 0.2; stroke-width: 0.8; stroke-linecap: square"/>
     </g>
     <g id="line2d_38">
      <g>
       <use xlink:href="#m66f0986e4f" x="631.976918" y="385.530625" style="stroke: #000000; stroke-width: 0.8"/>
      </g>
     </g>
     <g id="text_16">
      <!-- 2025-12-01 -->
      <g transform="translate(602.919105 400.129062) scale(0.1 -0.1)">
       <use xlink:href="#DejaVuSans-32"/>
       <use xlink:href="#DejaVuSans-30" transform="translate(63.623047 0)"/>
       <use xlink:href="#DejaVuSans-32" transform="translate(127.246094 0)"/>
       <use xlink:href="#DejaVuSans-35" transform="translate(190.869141 0)"/>
       <use xlink:href="#DejaVuSans-2d" transform="translate(254.492188 0)"/>
       <use xlink:href="#DejaVuSans-31" transform="translate(290.576172 0)"/>
       <use xlink:href="#DejaVuSans-32" transform="translate(354.199219 0)"/>
       <use xlink:href="#DejaVuSans-2d" transform="translate(417.822266 0)"/>
       <use xlink:href="#DejaVuSans-30" transform="translate(453.90625 0)"/>
       <use xlink:href="#DejaVuSans-31" transform="translate(517.529297 0)"/>
      </g>
     </g>
    </g>
    <g id="xtick_12">
     <g id="line2d_39">
      <path d="M 754.689295 385.530625 
L 754.689295 211.100625 
" clip-path="url(#pe65cc8e28d)" style="fill: none; stroke: #b0b0b0; stroke-opacity: 0.2; stroke-width: 0.8; stroke-linecap: square"/>
     </g>
     <g id="line2d_40">
      <g>
       <use xlink:href="#m66f0986e4f" x="754.689295" y="385.530625" style="stroke: #000000; stroke-width: 0.8"/>
      </g>
     </g>
     <g id="text_17">
      <!-- 2025-12-15 -->
      <g transform="translate(725.631482 400.129062) scale(0.1 -0.1)">
       <use xlink:href="#DejaVuSans-32"/>
       <use xlink:href="#DejaVuSans-30" transform="translate(63.623047 0)"/>
       <use xlink:href="#DejaVuSans-32" transform="translate(127.246094 0)"/>
       <use xlink:href="#DejaVuSans-35" transform="translate(190.869141 0)"/>
       <use xlink:href="#DejaVuSans-2d" transform="translate(254.492188 0)"/>
       <use xlink:href="#DejaVuSans-31" transform="translate(290.576172 0)"/>
       <use xlink:href="#DejaVuSans-32" transform="translate(354.199219 0)"/>
       <use xlink:href="#DejaVuSans-2d" transform="translate(417.822266 0)"/>
       <use xlink:href="#DejaVuSans-31" transform="translate(453.90625 0)"/>
       <use xlink:href="#DejaVuSans-35" transform="translate(517.529297 0)"/>
      </g>
     </g>
    </g>
    <g id="text_18">
     <!-- date -->
     <g transform="translate(441.015938 413.807187) scale(0.1 -0.1)">
      <use xlink:href="#DejaVuSans-64"/>
      <use xlink:href="#DejaVuSans-61" transform="translate(63.476562 0)"/>
      <use xlink:href="#DejaVuSans-74" transform="translate(124.755859 0)"/>
      <use xlink:href="#DejaVuSans-65" transform="translate(163.964844 0)"/>
     </g>
    </g>
   </g>
   <g id="matplotlib.axis_4">
    <g id="ytick_8">
     <g id="line2d_41">
      <path d="M 52.160938 358.681144 
L 852.420938 358.681144 
" clip-path="url(#pe65cc8e28d)" style="fill: none; stroke: #b0b0b0; stroke-opacity: 0.2; stroke-width: 0.8; stroke-linecap: square"/>
     </g>
     <g id="line2d_42">
      <g>
       <use xlink:href="#m241efa0583" x="52.160938" y="358.681144" style="stroke: #000000; stroke-width: 0.8"/>
      </g>
     </g>
     <g id="text_19">
      <!-- −10 -->
      <g transform="translate(24.05625 362.480363) scale(0.1 -0.1)">
       <use xlink:href="#DejaVuSans-2212"/>
       <use xlink:href="#DejaVuSans-31" transform="translate(83.789062 0)"/>
       <use xlink:href="#DejaVuSans-30" transform="translate(147.412109 0)"/>
      </g>
     </g>
    </g>
    <g id="ytick_9">
     <g id="line2d_43">
      <path d="M 52.160938 327.811464 
L 852.420938 327.811464 
" clip-path="url(#pe65cc8e28d)" style="fill: none; stroke: #b0b0b0; stroke-opacity: 0.2; stroke-width: 0.8; stroke-linecap: square"/>
     </g>
     <g id="line2d_44">
      <g>
       <use xlink:href="#m241efa0583" x="52.160938" y="327.811464" style="stroke: #000000; stroke-width: 0.8"/>
      </g>
     </g>
     <g id="text_20">
      <!-- −5 -->
      <g transform="translate(30.41875 331.610683) scale(0.1 -0.1)">
       <use xlink:href="#DejaVuSans-2212"/>
       <use xlink:href="#DejaVuSans-35" transform="translate(83.789062 0)"/>
      </g>
     </g>
    </g>
    <g id="ytick_10">
     <g id="line2d_45">
      <path d="M 52.160938 296.941783 
L 852.420938 296.941783 
" clip-path="url(#pe65cc8e28d)" style="fill: none; stroke: #b0b0b0; stroke-opacity: 0.2; stroke-width: 0.8; stroke-linecap: square"/>
     </g>
     <g id="line2d_46">
      <g>
       <use xlink:href="#m241efa0583" x="52.160938" y="296.941783" style="stroke: #000000; stroke-width: 0.8"/>
      </g>
     </g>
     <g id="text_21">
      <!-- 0 -->
      <g transform="translate(38.798438 300.741002) scale(0.1 -0.1)">
       <use xlink:href="#DejaVuSans-30"/>
      </g>
     </g>
    </g>
    <g id="ytick_11">
     <g id="line2d_47">
      <path d="M 52.160938 266.072102 
L 852.420938 266.072102 
" clip-path="url(#pe65cc8e28d)" style="fill: none; stroke: #b0b0b0; stroke-opacity: 0.2; stroke-width: 0.8; stroke-linecap: square"/>
     </g>
     <g id="line2d_48">
      <g>
       <use xlink:href="#m241efa0583" x="52.160938" y="266.072102" style="stroke: #000000; stroke-width: 0.8"/>
      </g>
     </g>
     <g id="text_22">
      <!-- 5 -->
      <g transform="translate(38.798438 269.871321) scale(0.1 -0.1)">
       <use xlink:href="#DejaVuSans-35"/>
      </g>
     </g>
    </g>
    <g id="ytick_12">
     <g id="line2d_49">
      <path d="M 52.160938 235.202422 
L 852.420938 235.202422 
" clip-path="url(#pe65cc8e28d)" style="fill: none; stroke: #b0b0b0; stroke-opacity: 0.2; stroke-width: 0.8; stroke-linecap: square"/>
     </g>
     <g id="line2d_50">
      <g>
       <use xlink:href="#m241efa0583" x="52.160938" y="235.202422" style="stroke: #000000; stroke-width: 0.8"/>
      </g>
     </g>
     <g id="text_23">
      <!-- 10 -->
      <g transform="translate(32.435938 239.00164) scale(0.1 -0.1)">
       <use xlink:href="#DejaVuSans-31"/>
       <use xlink:href="#DejaVuSans-30" transform="translate(63.623047 0)"/>
      </g>
     </g>
    </g>
    <g id="text_24">
     <!-- cumulated sigmas (z; level proxy) -->
     <g transform="translate(17.976563 383.039844) rotate(-90) scale(0.1 -0.1)">
      <defs>
       <path id="DejaVuSans-76" d="M 191 3500 
L 800 3500 
L 1894 563 
L 2988 3500 
L 3597 3500 
L 2284 0 
L 1503 0 
L 191 3500 
z
" transform="scale(0.015625)"/>
       <path id="DejaVuSans-70" d="M 1159 525 
L 1159 -1331 
L 581 -1331 
L 581 3500 
L 1159 3500 
L 1159 2969 
Q 1341 3281 1617 3432 
Q 1894 3584 2278 3584 
Q 2916 3584 3314 3078 
Q 3713 2572 3713 1747 
Q 3713 922 3314 415 
Q 2916 -91 2278 -91 
Q 1894 -91 1617 61 
Q 1341 213 1159 525 
z
M 3116 1747 
Q 3116 2381 2855 2742 
Q 2594 3103 2138 3103 
Q 1681 3103 1420 2742 
Q 1159 2381 1159 1747 
Q 1159 1113 1420 752 
Q 1681 391 2138 391 
Q 2594 391 2855 752 
Q 3116 1113 3116 1747 
z
" transform="scale(0.015625)"/>
       <path id="DejaVuSans-78" d="M 3513 3500 
L 2247 1797 
L 3578 0 
L 2900 0 
L 1881 1375 
L 863 0 
L 184 0 
L 1544 1831 
L 300 3500 
L 978 3500 
L 1906 2253 
L 2834 3500 
L 3513 3500 
z
" transform="scale(0.015625)"/>
      </defs>
      <use xlink:href="#DejaVuSans-63"/>
      <use xlink:href="#DejaVuSans-75" transform="translate(54.980469 0)"/>
      <use xlink:href="#DejaVuSans-6d" transform="translate(118.359375 0)"/>
      <use xlink:href="#DejaVuSans-75" transform="translate(215.771484 0)"/>
      <use xlink:href="#DejaVuSans-6c" transform="translate(279.150391 0)"/>
      <use xlink:href="#DejaVuSans-61" transform="translate(306.933594 0)"/>
      <use xlink:href="#DejaVuSans-74" transform="translate(368.212891 0)"/>
      <use xlink:href="#DejaVuSans-65" transform="translate(407.421875 0)"/>
      <use xlink:href="#DejaVuSans-64" transform="translate(468.945312 0)"/>
      <use xlink:href="#DejaVuSans-20" transform="translate(532.421875 0)"/>
      <use xlink:href="#DejaVuSans-73" transform="translate(564.208984 0)"/>
      <use xlink:href="#DejaVuSans-69" transform="translate(616.308594 0)"/>
      <use xlink:href="#DejaVuSans-67" transform="translate(644.091797 0)"/>
      <use xlink:href="#DejaVuSans-6d" transform="translate(707.568359 0)"/>
      <use xlink:href="#DejaVuSans-61" transform="translate(804.980469 0)"/>
      <use xlink:href="#DejaVuSans-73" transform="translate(866.259766 0)"/>
      <use xlink:href="#DejaVuSans-20" transform="translate(918.359375 0)"/>
      <use xlink:href="#DejaVuSans-28" transform="translate(950.146484 0)"/>
      <use xlink:href="#DejaVuSans-7a" transform="translate(989.160156 0)"/>
      <use xlink:href="#DejaVuSans-3b" transform="translate(1041.650391 0)"/>
      <use xlink:href="#DejaVuSans-20" transform="translate(1075.341797 0)"/>
      <use xlink:href="#DejaVuSans-6c" transform="translate(1107.128906 0)"/>
      <use xlink:href="#DejaVuSans-65" transform="translate(1134.912109 0)"/>
      <use xlink:href="#DejaVuSans-76" transform="translate(1196.435547 0)"/>
      <use xlink:href="#DejaVuSans-65" transform="translate(1255.615234 0)"/>
      <use xlink:href="#DejaVuSans-6c" transform="translate(1317.138672 0)"/>
      <use xlink:href="#DejaVuSans-20" transform="translate(1344.921875 0)"/>
      <use xlink:href="#DejaVuSans-70" transform="translate(1376.708984 0)"/>
      <use xlink:href="#DejaVuSans-72" transform="translate(1440.185547 0)"/>
      <use xlink:href="#DejaVuSans-6f" transform="translate(1479.048828 0)"/>
      <use xlink:href="#DejaVuSans-78" transform="translate(1537.105469 0)"/>
      <use xlink:href="#DejaVuSans-79" transform="translate(1596.285156 0)"/>
      <use xlink:href="#DejaVuSans-29" transform="translate(1655.464844 0)"/>
     </g>
    </g>
   </g>
   <g id="line2d_51">
    <path d="M 88.536392 296.919555 
L 97.301562 296.732256 
L 106.066732 296.949191 
L 114.831901 297.130231 
L 141.127411 297.140495 
L 149.89258 297.267804 
L 158.65775 297.380929 
L 167.42292 296.903639 
L 176.18809 297.240492 
L 202.483599 297.172069 
L 211.248769 297.156788 
L 220.013939 297.349968 
L 228.779108 297.19849 
L 237.544278 297.098904 
L 263.839787 296.986416 
L 272.604957 297.453577 
L 281.370127 297.460629 
L 290.135297 297.71319 
L 298.900467 297.865175 
L 325.195976 297.849584 
L 333.961146 297.662955 
L 342.726315 298.074465 
L 351.491485 297.793801 
L 360.256655 297.759034 
L 386.552164 297.887027 
L 395.317334 297.604439 
L 404.082504 297.613767 
L 412.847674 297.640417 
L 421.612843 298.067385 
L 447.908353 298.043968 
L 456.673522 297.678335 
L 465.438692 298.121267 
L 474.203862 298.03822 
L 482.969032 298.028384 
L 509.264541 297.967308 
L 518.029711 297.924332 
L 526.794881 297.403533 
L 535.56005 297.488768 
L 544.32522 297.741269 
L 570.620729 297.328717 
L 579.385899 297.023494 
L 588.151069 297.734894 
L 596.916239 297.594965 
L 605.681408 297.725448 
L 631.976918 297.836452 
L 640.742088 297.894487 
L 649.507257 298.287584 
L 658.272427 298.364783 
L 667.037597 297.785538 
L 693.333106 297.514348 
L 702.098276 297.641987 
L 710.863446 297.439753 
L 719.628615 297.570071 
L 728.393785 297.252459 
L 754.689295 297.742487 
L 763.454464 297.515708 
L 772.219634 297.117284 
L 780.984804 297.087052 
L 789.749974 297.318476 
L 816.045483 298.000128 
" clip-path="url(#pe65cc8e28d)" style="fill: none; stroke: #1f77b4; stroke-width: 1.4; stroke-linecap: square"/>
   </g>
   <g id="patch_10">
    <path d="M 52.160938 385.530625 
L 52.160938 211.100625 
" style="fill: none; stroke: #000000; stroke-width: 0.8; stroke-linejoin: miter; stroke-linecap: square"/>
   </g>
   <g id="patch_11">
    <path d="M 852.420938 385.530625 
L 852.420938 211.100625 
" style="fill: none; stroke: #000000; stroke-width: 0.8; stroke-linejoin: miter; stroke-linecap: square"/>
   </g>
   <g id="patch_12">
    <path d="M 52.160938 385.530625 
L 852.420938 385.530625 
" style="fill: none; stroke: #000000; stroke-width: 0.8; stroke-linejoin: miter; stroke-linecap: square"/>
   </g>
   <g id="patch_13">
    <path d="M 52.160938 211.100625 
L 852.420938 211.100625 
" style="fill: none; stroke: #000000; stroke-width: 0.8; stroke-linejoin: miter; stroke-linecap: square"/>
   </g>
   <g id="legend_2">
    <g id="patch_14">
     <path d="M 57.760938 240.985625 
L 137.393438 240.985625 
Q 138.993437 240.985625 138.993437 239.385625 
L 138.993437 216.700625 
Q 138.993437 215.100625 137.393438 215.100625 
L 57.760938 215.100625 
Q 56.160938 215.100625 56.160938 216.700625 
L 56.160938 239.385625 
Q 56.160938 240.985625 57.760938 240.985625 
z
" style="fill: #ffffff; opacity: 0.8; stroke: #cccccc; stroke-linejoin: miter"/>
    </g>
    <g id="patch_15">
     <path d="M 59.360938 224.379375 
L 75.360938 224.379375 
L 75.360938 218.779375 
L 59.360938 218.779375 
z
" style="fill: #1f77b4; fill-opacity: 0.25"/>
    </g>
    <g id="text_25">
     <!-- q5-q95 band -->
     <g transform="translate(81.760938 224.379375) scale(0.08 -0.08)">
      <use xlink:href="#DejaVuSans-71"/>
      <use xlink:href="#DejaVuSans-35" transform="translate(63.476562 0)"/>
      <use xlink:href="#DejaVuSans-2d" transform="translate(127.099609 0)"/>
      <use xlink:href="#DejaVuSans-71" transform="translate(163.183594 0)"/>
      <use xlink:href="#DejaVuSans-39" transform="translate(226.660156 0)"/>
      <use xlink:href="#DejaVuSans-35" transform="translate(290.283203 0)"/>
      <use xlink:href="#DejaVuSans-20" transform="translate(353.90625 0)"/>
      <use xlink:href="#DejaVuSans-62" transform="translate(385.693359 0)"/>
      <use xlink:href="#DejaVuSans-61" transform="translate(449.169922 0)"/>
      <use xlink:href="#DejaVuSans-6e" transform="translate(510.449219 0)"/>
      <use xlink:href="#DejaVuSans-64" transform="translate(573.828125 0)"/>
     </g>
    </g>
    <g id="line2d_52">
     <path d="M 59.360938 233.321875 
L 67.360938 233.321875 
L 75.360938 233.321875 
" style="fill: none; stroke: #1f77b4; stroke-width: 1.4; stroke-linecap: square"/>
    </g>
    <g id="text_26">
     <!-- median (q50) -->
     <g transform="translate(81.760938 236.121875) scale(0.08 -0.08)">
      <use xlink:href="#DejaVuSans-6d"/>
      <use xlink:href="#DejaVuSans-65" transform="translate(97.412109 0)"/>
      <use xlink:href="#DejaVuSans-64" transform="translate(158.935547 0)"/>
      <use xlink:href="#DejaVuSans-69" transform="translate(222.412109 0)"/>
      <use xlink:href="#DejaVuSans-61" transform="translate(250.195312 0)"/>
      <use xlink:href="#DejaVuSans-6e" transform="translate(311.474609 0)"/>
      <use xlink:href="#DejaVuSans-20" transform="translate(374.853516 0)"/>
      <use xlink:href="#DejaVuSans-28" transform="translate(406.640625 0)"/>
      <use xlink:href="#DejaVuSans-71" transform="translate(445.654297 0)"/>
      <use xlink:href="#DejaVuSans-35" transform="translate(509.130859 0)"/>
      <use xlink:href="#DejaVuSans-30" transform="translate(572.753906 0)"/>
      <use xlink:href="#DejaVuSans-29" transform="translate(636.376953 0)"/>
     </g>
    </g>
   </g>
  </g>
 </g>
 <defs>
  <clipPath id="p6150458dd9">
   <rect x="52.160938" y="22.370625" width="800.26" height="174.43"/>
  </clipPath>
  <clipPath id="pe65cc8e28d">
   <rect x="52.160938" y="211.100625" width="800.26" height="174.43"/>
  </clipPath>
 </defs>
</svg>
