<?xml version="1.0" encoding="utf-8" standalone="no"?>
<!DOCTYPE svg PUBLIC "-//W3C//DTD SVG 1.1//EN"
  "http://www.w3.org/Graphics/SVG/1.1/DTD/svg11.dtd">
<svg xmlns:xlink="http://www.w3.org/1999/xlink" width="862.983529pt" height="292.64pt" viewBox="0 0 862.983529 292.64" xmlns="http://www.w3.org/2000/svg" version="1.1">
 <metadata>
  <rdf:RDF xmlns:dc="http://purl.org/dc/elements/1.1/" xmlns:cc="http://creativecommons.org/ns#" xmlns:rdf="http://www.w3.org/1999/02/22-rdf-syntax-ns#">
   <cc:Work>
    <dc:type rdf:resource="http://purl.org/dc/dcmitype/StillImage"/>
    <dc:date>2026-02-27T12:36:35.564477</dc:date>
    <dc:format>image/svg+xml</dc:format>
    <dc:creator>
     <cc:Agent>
      <dc:title>Matplotlib v3.10.7, https://matplotlib.org/</dc:title>
     </cc:Agent>
    </dc:creator>
   </cc:Work>
  </rdf:RDF>
 </metadata>
 <defs>
  <style type="text/css">*{stroke-linejoin: round; stroke-linecap: butt}</style>
 </defs>
 <g id="figure_1">
  <g id="patch_1">
   <path d="M 0 292.64 
L 862.983529 292.64 
L 862.983529 0 
L 0 0 
z
" style="fill: #ffffff"/>
  </g>
  <g id="axes_1">
   <g id="patch_2">
    <path d="M 177.408 161.04 
C 177.408 146.961855 173.478071 133.15932 166.062441 121.192592 
C 158.646811 109.225863 148.035833 99.56349 135.428941 93.297677 
L 101.76 161.04 
z
" style="fill: #1f77b4"/>
   </g>
   <g id="patch_3">
    <path d="M 135.428946 93.29768 
C 123.057485 87.14888 109.234834 84.504995 95.467475 85.654165 
C 81.700117 86.80334 68.507063 91.702252 57.326194 99.816991 
L 101.76 161.04 
z
" style="fill: #ff7f0e"/>
   </g>
   <g id="patch_4">
    <path d="M 57.326194 99.816991 
C 46.68203 107.542204 38.234263 117.911384 32.819818 129.897246 
C 27.405372 141.883109 25.209159 155.076323 26.448744 168.169853 
L 101.76 161.04 
z
" style="fill: #2ca02c"/>
   </g>
   <g id="patch_5">
    <path d="M 26.448744 168.169853 
C 26.96521 173.625168 28.072898 179.008252 29.752296 184.224267 
C 31.431694 189.440282 33.672874 194.458414 36.43636 199.190256 
L 101.76 161.04 
z
" style="fill: #d62728"/>
   </g>
   <g id="patch_6">
    <path d="M 36.43636 199.190256 
C 39.099747 203.750698 42.233388 208.019711 45.785994 211.927426 
C 49.338599 215.83514 53.290682 219.360119 57.577524 222.44463 
L 101.76 161.04 
z
" style="fill: #9467bd"/>
   </g>
   <g id="patch_7">
    <path d="M 57.577524 222.44463 
C 60.957689 224.876761 64.532914 227.025638 68.266744 228.869357 
C 72.000574 230.713075 75.880276 232.245337 79.866287 233.450531 
L 101.76 161.04 
z
" style="fill: #8c564b"/>
   </g>
   <g id="patch_8">
    <path d="M 79.866287 233.450531 
C 91.167218 236.86743 103.112671 237.591787 114.743676 235.56546 
C 126.37468 233.539128 137.371402 228.817833 146.851034 221.780585 
C 156.330665 214.743337 164.032558 205.583627 169.33836 195.036841 
C 174.644162 184.490055 177.408 172.846182 177.408 161.039987 
L 101.76 161.04 
z
" style="fill: #e377c2"/>
   </g>
   <g id="matplotlib.axis_1"/>
   <g id="matplotlib.axis_2"/>
   <g id="text_1">
    <!-- 18% -->
    <g transform="translate(129.228183 139.890929) scale(0.1 -0.1)">
     <defs>
      <path id="DejaVuSans-31" d="M 794 531 
L 1825 531 
L 1825 4091 
L 703 3866 
L 703 4441 
L 1819 4666 
L 2450 4666 
L 2450 531 
L 3481 531 
L 3481 0 
L 794 0 
L 794 531 
z
" transform="scale(0.015625)"/>
      <path id="DejaVuSans-38" d="M 2034 2216 
Q 1584 2216 1326 1975 
Q 1069 1734 1069 1313 
Q 1069 891 1326 650 
Q 1584 409 2034 409 
Q 2484 409 2743 651 
Q 3003 894 3003 1313 
Q 3003 1734 2745 1975 
Q 2488 2216 2034 2216 
z
M 1403 2484 
Q 997 2584 770 2862 
Q 544 3141 544 3541 
Q 544 4100 942 4425 
Q 1341 4750 2034 4750 
Q 2731 4750 3128 4425 
Q 3525 4100 3525 3541 
Q 3525 3141 3298 2862 
Q 3072 2584 2669 2484 
Q 3125 2378 3379 2068 
Q 3634 1759 3634 1313 
Q 3634 634 3220 271 
Q 2806 -91 2034 -91 
Q 1263 -91 848 271 
Q 434 634 434 1313 
Q 434 1759 690 2068 
Q 947 2378 1403 2484 
z
M 1172 3481 
Q 1172 3119 1398 2916 
Q 1625 2713 2034 2713 
Q 2441 2713 2670 2916 
Q 2900 3119 2900 3481 
Q 2900 3844 2670 4047 
Q 2441 4250 2034 4250 
Q 1625 4250 1398 4047 
Q 1172 3844 1172 3481 
z
" transform="scale(0.015625)"/>
      <path id="DejaVuSans-25" d="M 4653 2053 
Q 4381 2053 4226 1822 
Q 4072 1591 4072 1178 
Q 4072 772 4226 539 
Q 4381 306 4653 306 
Q 4919 306 5073 539 
Q 5228 772 5228 1178 
Q 5228 1588 5073 1820 
Q 4919 2053 4653 2053 
z
M 4653 2450 
Q 5147 2450 5437 2106 
Q 5728 1763 5728 1178 
Q 5728 594 5436 251 
Q 5144 -91 4653 -91 
Q 4153 -91 3862 251 
Q 3572 594 3572 1178 
Q 3572 1766 3864 2108 
Q 4156 2450 4653 2450 
z
M 1428 4353 
Q 1159 4353 1004 4120 
Q 850 3888 850 3481 
Q 850 3069 1003 2837 
Q 1156 2606 1428 2606 
Q 1700 2606 1854 2837 
Q 2009 3069 2009 3481 
Q 2009 3884 1853 4118 
Q 1697 4353 1428 4353 
z
M 4250 4750 
L 4750 4750 
L 1831 -91 
L 1331 -91 
L 4250 4750 
z
M 1428 4750 
Q 1922 4750 2215 4408 
Q 2509 4066 2509 3481 
Q 2509 2891 2217 2550 
Q 1925 2209 1428 2209 
Q 931 2209 642 2551 
Q 353 2894 353 3481 
Q 353 4063 643 4406 
Q 934 4750 1428 4750 
z
" transform="scale(0.015625)"/>
     </defs>
     <use xlink:href="#DejaVuSans-31"/>
     <use xlink:href="#DejaVuSans-38" transform="translate(63.623047 0)"/>
     <use xlink:href="#DejaVuSans-25" transform="translate(127.246094 0)"/>
    </g>
   </g>
   <g id="text_2">
    <!-- 17% -->
    <g transform="translate(86.871193 118.567875) scale(0.1 -0.1)">
     <defs>
      <path id="DejaVuSans-37" d="M 525 4666 
L 3525 4666 
L 3525 4397 
L 1831 0 
L 1172 0 
L 2766 4134 
L 525 4134 
L 525 4666 
z
" transform="scale(0.015625)"/>
     </defs>
     <use xlink:href="#DejaVuSans-31"/>
     <use xlink:href="#DejaVuSans-37" transform="translate(63.623047 0)"/>
     <use xlink:href="#DejaVuSans-25" transform="translate(127.246094 0)"/>
    </g>
   </g>
   <g id="text_3">
    <!-- 17% -->
    <g transform="translate(49.282609 145.113723) scale(0.1 -0.1)">
     <use xlink:href="#DejaVuSans-31"/>
     <use xlink:href="#DejaVuSans-37" transform="translate(63.623047 0)"/>
     <use xlink:href="#DejaVuSans-25" transform="translate(127.246094 0)"/>
    </g>
   </g>
   <g id="text_4">
    <!-- 30% -->
    <g transform="translate(117.701339 200.243726) scale(0.1 -0.1)">
     <defs>
      <path id="DejaVuSans-33" d="M 2597 2516 
Q 3050 2419 3304 2112 
Q 3559 1806 3559 1356 
Q 3559 666 3084 287 
Q 2609 -91 1734 -91 
Q 1441 -91 1130 -33 
Q 819 25 488 141 
L 488 750 
Q 750 597 1062 519 
Q 1375 441 1716 441 
Q 2309 441 2620 675 
Q 2931 909 2931 1356 
Q 2931 1769 2642 2001 
Q 2353 2234 1838 2234 
L 1294 2234 
L 1294 2753 
L 1863 2753 
Q 2328 2753 2575 2939 
Q 2822 3125 2822 3475 
Q 2822 3834 2567 4026 
Q 2313 4219 1838 4219 
Q 1578 4219 1281 4162 
Q 984 4106 628 3988 
L 628 4550 
Q 988 4650 1302 4700 
Q 1616 4750 1894 4750 
Q 2613 4750 3031 4423 
Q 3450 4097 3450 3541 
Q 3450 3153 3228 2886 
Q 3006 2619 2597 2516 
z
" transform="scale(0.015625)"/>
      <path id="DejaVuSans-30" d="M 2034 4250 
Q 1547 4250 1301 3770 
Q 1056 3291 1056 2328 
Q 1056 1369 1301 889 
Q 1547 409 2034 409 
Q 2525 409 2770 889 
Q 3016 1369 3016 2328 
Q 3016 3291 2770 3770 
Q 2525 4250 2034 4250 
z
M 2034 4750 
Q 2819 4750 3233 4129 
Q 3647 3509 3647 2328 
Q 3647 1150 3233 529 
Q 2819 -91 2034 -91 
Q 1250 -91 836 529 
Q 422 1150 422 2328 
Q 422 3509 836 4129 
Q 1250 4750 2034 4750 
z
" transform="scale(0.015625)"/>
     </defs>
     <use xlink:href="#DejaVuSans-33"/>
     <use xlink:href="#DejaVuSans-30" transform="translate(63.623047 0)"/>
     <use xlink:href="#DejaVuSans-25" transform="translate(127.246094 0)"/>
    </g>
   </g>
   <g id="text_5">
    <!-- adverse -->
    <g transform="translate(77.746875 60.48) scale(0.12 -0.12)">
     <defs>
      <path id="DejaVuSans-61" d="M 2194 1759 
Q 1497 1759 1228 1600 
Q 959 1441 959 1056 
Q 959 750 1161 570 
Q 1363 391 1709 391 
Q 2188 391 2477 730 
Q 2766 1069 2766 1631 
L 2766 1759 
L 2194 1759 
z
M 3341 1997 
L 3341 0 
L 2766 0 
L 2766 531 
Q 2569 213 2275 61 
Q 1981 -91 1556 -91 
Q 1019 -91 701 211 
Q 384 513 384 1019 
Q 384 1609 779 1909 
Q 1175 2209 1959 2209 
L 2766 2209 
L 2766 2266 
Q 2766 2663 2505 2880 
Q 2244 3097 1772 3097 
Q 1472 3097 1187 3025 
Q 903 2953 641 2809 
L 641 3341 
Q 956 3463 1253 3523 
Q 1550 3584 1831 3584 
Q 2591 3584 2966 3190 
Q 3341 2797 3341 1997 
z
" transform="scale(0.015625)"/>
      <path id="DejaVuSans-64" d="M 2906 2969 
L 2906 4863 
L 3481 4863 
L 3481 0 
L 2906 0 
L 2906 525 
Q 2725 213 2448 61 
Q 2172 -91 1784 -91 
Q 1150 -91 751 415 
Q 353 922 353 1747 
Q 353 2572 751 3078 
Q 1150 3584 1784 3584 
Q 2172 3584 2448 3432 
Q 2725 3281 2906 2969 
z
M 947 1747 
Q 947 1113 1208 752 
Q 1469 391 1925 391 
Q 2381 391 2643 752 
Q 2906 1113 2906 1747 
Q 2906 2381 2643 2742 
Q 2381 3103 1925 3103 
Q 1469 3103 1208 2742 
Q 947 2381 947 1747 
z
" transform="scale(0.015625)"/>
      <path id="DejaVuSans-76" d="M 191 3500 
L 800 3500 
L 1894 563 
L 2988 3500 
L 3597 3500 
L 2284 0 
L 1503 0 
L 191 3500 
z
" transform="scale(0.015625)"/>
      <path id="DejaVuSans-65" d="M 3597 1894 
L 3597 1613 
L 953 1613 
Q 991 1019 1311 708 
Q 1631 397 2203 397 
Q 2534 397 2845 478 
Q 3156 559 3463 722 
L 3463 178 
Q 3153 47 2828 -22 
Q 2503 -91 2169 -91 
Q 1331 -91 842 396 
Q 353 884 353 1716 
Q 353 2575 817 3079 
Q 1281 3584 2069 3584 
Q 2775 3584 3186 3129 
Q 3597 2675 3597 1894 
z
M 3022 2063 
Q 3016 2534 2758 2815 
Q 2500 3097 2075 3097 
Q 1594 3097 1305 2825 
Q 1016 2553 972 2059 
L 3022 2063 
z
" transform="scale(0.015625)"/>
      <path id="DejaVuSans-72" d="M 2631 2963 
Q 2534 3019 2420 3045 
Q 2306 3072 2169 3072 
Q 1681 3072 1420 2755 
Q 1159 2438 1159 1844 
L 1159 0 
L 581 0 
L 581 3500 
L 1159 3500 
L 1159 2956 
Q 1341 3275 1631 3429 
Q 1922 3584 2338 3584 
Q 2397 3584 2469 3576 
Q 2541 3569 2628 3553 
L 2631 2963 
z
" transform="scale(0.015625)"/>
      <path id="DejaVuSans-73" d="M 2834 3397 
L 2834 2853 
Q 2591 2978 2328 3040 
Q 2066 3103 1784 3103 
Q 1356 3103 1142 2972 
Q 928 2841 928 2578 
Q 928 2378 1081 2264 
Q 1234 2150 1697 2047 
L 1894 2003 
Q 2506 1872 2764 1633 
Q 3022 1394 3022 966 
Q 3022 478 2636 193 
Q 2250 -91 1575 -91 
Q 1294 -91 989 -36 
Q 684 19 347 128 
L 347 722 
Q 666 556 975 473 
Q 1284 391 1588 391 
Q 1994 391 2212 530 
Q 2431 669 2431 922 
Q 2431 1156 2273 1281 
Q 2116 1406 1581 1522 
L 1381 1569 
Q 847 1681 609 1914 
Q 372 2147 372 2553 
Q 372 3047 722 3315 
Q 1072 3584 1716 3584 
Q 2034 3584 2315 3537 
Q 2597 3491 2834 3397 
z
" transform="scale(0.015625)"/>
     </defs>
     <use xlink:href="#DejaVuSans-61"/>
     <use xlink:href="#DejaVuSans-64" transform="translate(61.279297 0)"/>
     <use xlink:href="#DejaVuSans-76" transform="translate(124.755859 0)"/>
     <use xlink:href="#DejaVuSans-65" transform="translate(183.935547 0)"/>
     <use xlink:href="#DejaVuSans-72" transform="translate(245.458984 0)"/>
     <use xlink:href="#DejaVuSans-73" transform="translate(286.572266 0)"/>
     <use xlink:href="#DejaVuSans-65" transform="translate(338.671875 0)"/>
    </g>
   </g>
  </g>
  <g id="axes_2">
   <g id="patch_9">
    <path d="M 507.139765 161.04 
C 507.139765 141.779638 499.784087 123.228095 486.585598 109.200927 
C 473.387109 95.17376 455.317268 86.703422 436.09256 85.532036 
L 431.491765 161.04 
z
" style="fill: #1f77b4"/>
   </g>
   <g id="patch_10">
    <path d="M 436.092563 85.532035 
C 417.460617 84.396771 399.052163 90.197004 384.43642 101.808131 
C 369.820677 113.419257 360.007521 130.039015 356.89964 148.444974 
L 431.491765 161.04 
z
" style="fill: #ff7f0e"/>
   </g>
   <g id="patch_11">
    <path d="M 356.89964 148.444974 
C 353.85621 166.469227 357.446574 184.99967 367.001622 200.582906 
C 376.556671 216.166144 391.44352 227.770011 408.887807 233.231972 
L 431.491765 161.04 
z
" style="fill: #2ca02c"/>
   </g>
   <g id="patch_12">
    <path d="M 408.887807 233.231972 
C 412.720384 234.431985 416.642443 235.324902 420.616781 235.902239 
C 424.591119 236.479577 428.605129 236.73951 432.620734 236.679577 
L 431.491765 161.04 
z
" style="fill: #d62728"/>
   </g>
   <g id="patch_13">
    <path d="M 432.620734 236.679577 
C 436.028052 236.628721 439.428043 236.347685 442.797468 235.838401 
C 446.166893 235.329118 449.498058 234.592744 452.768195 233.634308 
L 431.491765 161.04 
z
" style="fill: #9467bd"/>
   </g>
   <g id="patch_14">
    <path d="M 452.768195 233.634308 
C 455.227157 232.913621 457.647931 232.06845 460.021121 231.102087 
C 462.39431 230.135724 464.716848 229.049409 466.97979 227.847335 
L 431.491765 161.04 
z
" style="fill: #8c564b"/>
   </g>
   <g id="patch_15">
    <path d="M 466.97979 227.847335 
C 479.106042 221.405876 489.252735 211.782769 496.327024 200.014469 
C 503.401313 188.246169 507.139765 174.770916 507.139765 161.039987 
L 431.491765 161.04 
z
" style="fill: #e377c2"/>
   </g>
   <g id="matplotlib.axis_3"/>
   <g id="matplotlib.axis_4"/>
   <g id="text_6">
    <!-- 24% -->
    <g transform="translate(453.434784 132.695932) scale(0.1 -0.1)">
     <defs>
      <path id="DejaVuSans-32" d="M 1228 531 
L 3431 531 
L 3431 0 
L 469 0 
L 469 531 
Q 828 903 1448 1529 
Q 2069 2156 2228 2338 
Q 2531 2678 2651 2914 
Q 2772 3150 2772 3378 
Q 2772 3750 2511 3984 
Q 2250 4219 1831 4219 
Q 1534 4219 1204 4116 
Q 875 4013 500 3803 
L 500 4441 
Q 881 4594 1212 4672 
Q 1544 4750 1819 4750 
Q 2544 4750 2975 4387 
Q 3406 4025 3406 3419 
Q 3406 3131 3298 2873 
Q 3191 2616 2906 2266 
Q 2828 2175 2409 1742 
Q 1991 1309 1228 531 
z
" transform="scale(0.015625)"/>
      <path id="DejaVuSans-34" d="M 2419 4116 
L 825 1625 
L 2419 1625 
L 2419 4116 
z
M 2253 4666 
L 3047 4666 
L 3047 1625 
L 3713 1625 
L 3713 1100 
L 3047 1100 
L 3047 0 
L 2419 0 
L 2419 1100 
L 313 1100 
L 313 1709 
L 2253 4666 
z
" transform="scale(0.015625)"/>
     </defs>
     <use xlink:href="#DejaVuSans-32"/>
     <use xlink:href="#DejaVuSans-34" transform="translate(63.623047 0)"/>
     <use xlink:href="#DejaVuSans-25" transform="translate(127.246094 0)"/>
    </g>
   </g>
   <g id="text_7">
    <!-- 23% -->
    <g transform="translate(392.145268 128.26026) scale(0.1 -0.1)">
     <use xlink:href="#DejaVuSans-32"/>
     <use xlink:href="#DejaVuSans-33" transform="translate(63.623047 0)"/>
     <use xlink:href="#DejaVuSans-25" transform="translate(127.246094 0)"/>
    </g>
   </g>
   <g id="text_8">
    <!-- 23% -->
    <g transform="translate(381.684404 187.525128) scale(0.1 -0.1)">
     <use xlink:href="#DejaVuSans-32"/>
     <use xlink:href="#DejaVuSans-33" transform="translate(63.623047 0)"/>
     <use xlink:href="#DejaVuSans-25" transform="translate(127.246094 0)"/>
    </g>
   </g>
   <g id="text_9">
    <!-- 17% -->
    <g transform="translate(459.279638 187.184056) scale(0.1 -0.1)">
     <use xlink:href="#DejaVuSans-31"/>
     <use xlink:href="#DejaVuSans-37" transform="translate(63.623047 0)"/>
     <use xlink:href="#DejaVuSans-25" transform="translate(127.246094 0)"/>
    </g>
   </g>
   <g id="text_10">
    <!-- severe -->
    <g transform="translate(411.407702 60.48) scale(0.12 -0.12)">
     <use xlink:href="#DejaVuSans-73"/>
     <use xlink:href="#DejaVuSans-65" transform="translate(52.099609 0)"/>
     <use xlink:href="#DejaVuSans-76" transform="translate(113.623047 0)"/>
     <use xlink:href="#DejaVuSans-65" transform="translate(172.802734 0)"/>
     <use xlink:href="#DejaVuSans-72" transform="translate(234.326172 0)"/>
     <use xlink:href="#DejaVuSans-65" transform="translate(273.189453 0)"/>
    </g>
   </g>
  </g>
  <g id="axes_3">
   <g id="patch_16">
    <path d="M 836.871529 161.04 
C 836.871529 149.633058 834.291455 138.37248 829.324966 128.103482 
C 824.358478 117.834485 817.133025 108.820592 808.190951 101.738388 
C 799.248877 94.656183 788.819653 89.687409 777.686096 87.205023 
C 766.55254 84.722637 755.000361 84.790342 743.896666 87.403055 
L 761.223529 161.04 
z
" style="fill: #1f77b4"/>
   </g>
   <g id="patch_17">
    <path d="M 743.896668 87.403056 
C 732.905588 89.989271 722.631706 95.003767 713.830954 102.077605 
C 705.030202 109.151443 697.923855 118.106753 693.034776 128.284635 
C 688.145698 138.462517 685.596812 149.607066 685.57566 160.898299 
C 685.554509 172.189532 688.061628 183.34355 692.912542 193.539677 
L 761.223529 161.04 
z
" style="fill: #ff7f0e"/>
   </g>
   <g id="patch_18">
    <path d="M 692.912542 193.539677 
C 697.463385 203.105081 703.973015 211.608817 712.018816 218.49882 
C 720.064617 225.388822 729.468642 230.512683 739.620302 233.537725 
C 749.771962 236.562768 760.446719 237.422088 770.951552 236.0599 
C 781.456385 234.697713 791.558911 231.144151 800.60326 225.629913 
L 761.223529 161.04 
z
" style="fill: #2ca02c"/>
   </g>
   <g id="patch_19">
    <path d="M 800.60326 225.629913 
C 803.489634 223.870124 806.254819 221.918821 808.880182 219.789157 
C 811.505544 217.659493 813.985195 215.356247 816.302469 212.894898 
L 761.223529 161.04 
z
" style="fill: #d62728"/>
   </g>
   <g id="patch_20">
    <path d="M 816.302469 212.894898 
C 817.6486 211.465071 818.938545 209.983369 820.169372 208.453159 
C 821.4002 206.922949 822.570972 205.34539 823.679034 203.724072 
L 761.223529 161.04 
z
" style="fill: #9467bd"/>
   </g>
   <g id="patch_21">
    <path d="M 823.679034 203.724072 
C 824.700159 202.229957 825.667329 200.699697 826.5787 199.136216 
C 827.490072 197.572732 828.34505 195.977031 829.141974 194.352228 
L 761.223529 161.04 
z
" style="fill: #8c564b"/>
   </g>
   <g id="patch_22">
    <path d="M 829.141974 194.352228 
C 831.676431 189.184864 833.612909 183.745121 834.913806 178.138627 
C 836.214703 172.532132 836.871529 166.795429 836.871529 161.039987 
L 761.223529 161.04 
z
" style="fill: #e377c2"/>
   </g>
   <g id="matplotlib.axis_5"/>
   <g id="matplotlib.axis_6"/>
   <g id="text_11">
    <!-- 29% -->
    <g transform="translate(778.290699 128.218406) scale(0.1 -0.1)">
     <defs>
      <path id="DejaVuSans-39" d="M 703 97 
L 703 672 
Q 941 559 1184 500 
Q 1428 441 1663 441 
Q 2288 441 2617 861 
Q 2947 1281 2994 2138 
Q 2813 1869 2534 1725 
Q 2256 1581 1919 1581 
Q 1219 1581 811 2004 
Q 403 2428 403 3163 
Q 403 3881 828 4315 
Q 1253 4750 1959 4750 
Q 2769 4750 3195 4129 
Q 3622 3509 3622 2328 
Q 3622 1225 3098 567 
Q 2575 -91 1691 -91 
Q 1453 -91 1209 -44 
Q 966 3 703 97 
z
M 1959 2075 
Q 2384 2075 2632 2365 
Q 2881 2656 2881 3163 
Q 2881 3666 2632 3958 
Q 2384 4250 1959 4250 
Q 1534 4250 1286 3958 
Q 1038 3666 1038 3163 
Q 1038 2656 1286 2365 
Q 1534 2075 1959 2075 
z
" transform="scale(0.015625)"/>
     </defs>
     <use xlink:href="#DejaVuSans-32"/>
     <use xlink:href="#DejaVuSans-39" transform="translate(63.623047 0)"/>
     <use xlink:href="#DejaVuSans-25" transform="translate(127.246094 0)"/>
    </g>
   </g>
   <g id="text_12">
    <!-- 28% -->
    <g transform="translate(709.196997 144.146156) scale(0.1 -0.1)">
     <use xlink:href="#DejaVuSans-32"/>
     <use xlink:href="#DejaVuSans-38" transform="translate(63.623047 0)"/>
     <use xlink:href="#DejaVuSans-25" transform="translate(127.246094 0)"/>
    </g>
   </g>
   <g id="text_13">
    <!-- 27% -->
    <g transform="translate(737.148291 207.298005) scale(0.1 -0.1)">
     <use xlink:href="#DejaVuSans-32"/>
     <use xlink:href="#DejaVuSans-37" transform="translate(63.623047 0)"/>
     <use xlink:href="#DejaVuSans-25" transform="translate(127.246094 0)"/>
    </g>
   </g>
   <g id="text_14">
    <!-- crisis -->
    <g transform="translate(745.872904 60.48) scale(0.12 -0.12)">
     <defs>
      <path id="DejaVuSans-63" d="M 3122 3366 
L 3122 2828 
Q 2878 2963 2633 3030 
Q 2388 3097 2138 3097 
Q 1578 3097 1268 2742 
Q 959 2388 959 1747 
Q 959 1106 1268 751 
Q 1578 397 2138 397 
Q 2388 397 2633 464 
Q 2878 531 3122 666 
L 3122 134 
Q 2881 22 2623 -34 
Q 2366 -91 2075 -91 
Q 1284 -91 818 406 
Q 353 903 353 1747 
Q 353 2603 823 3093 
Q 1294 3584 2113 3584 
Q 2378 3584 2631 3529 
Q 2884 3475 3122 3366 
z
" transform="scale(0.015625)"/>
      <path id="DejaVuSans-69" d="M 603 3500 
L 1178 3500 
L 1178 0 
L 603 0 
L 603 3500 
z
M 603 4863 
L 1178 4863 
L 1178 4134 
L 603 4134 
L 603 4863 
z
" transform="scale(0.015625)"/>
     </defs>
     <use xlink:href="#DejaVuSans-63"/>
     <use xlink:href="#DejaVuSans-72" transform="translate(54.980469 0)"/>
     <use xlink:href="#DejaVuSans-69" transform="translate(96.09375 0)"/>
     <use xlink:href="#DejaVuSans-73" transform="translate(123.876953 0)"/>
     <use xlink:href="#DejaVuSans-69" transform="translate(175.976562 0)"/>
     <use xlink:href="#DejaVuSans-73" transform="translate(203.759766 0)"/>
    </g>
   </g>
  </g>
  <g id="text_15">
   <!-- Severity share decomposition (median within regime) -->
   <g transform="translate(270.05989 16.318125) scale(0.12 -0.12)">
    <defs>
     <path id="DejaVuSans-53" d="M 3425 4513 
L 3425 3897 
Q 3066 4069 2747 4153 
Q 2428 4238 2131 4238 
Q 1616 4238 1336 4038 
Q 1056 3838 1056 3469 
Q 1056 3159 1242 3001 
Q 1428 2844 1947 2747 
L 2328 2669 
Q 3034 2534 3370 2195 
Q 3706 1856 3706 1288 
Q 3706 609 3251 259 
Q 2797 -91 1919 -91 
Q 1588 -91 1214 -16 
Q 841 59 441 206 
L 441 856 
Q 825 641 1194 531 
Q 1563 422 1919 422 
Q 2459 422 2753 634 
Q 3047 847 3047 1241 
Q 3047 1584 2836 1778 
Q 2625 1972 2144 2069 
L 1759 2144 
Q 1053 2284 737 2584 
Q 422 2884 422 3419 
Q 422 4038 858 4394 
Q 1294 4750 2059 4750 
Q 2388 4750 2728 4690 
Q 3069 4631 3425 4513 
z
" transform="scale(0.015625)"/>
     <path id="DejaVuSans-74" d="M 1172 4494 
L 1172 3500 
L 2356 3500 
L 2356 3053 
L 1172 3053 
L 1172 1153 
Q 1172 725 1289 603 
Q 1406 481 1766 481 
L 2356 481 
L 2356 0 
L 1766 0 
Q 1100 0 847 248 
Q 594 497 594 1153 
L 594 3053 
L 172 3053 
L 172 3500 
L 594 3500 
L 594 4494 
L 1172 4494 
z
" transform="scale(0.015625)"/>
     <path id="DejaVuSans-79" d="M 2059 -325 
Q 1816 -950 1584 -1140 
Q 1353 -1331 966 -1331 
L 506 -1331 
L 506 -850 
L 844 -850 
Q 1081 -850 1212 -737 
Q 1344 -625 1503 -206 
L 1606 56 
L 191 3500 
L 800 3500 
L 1894 763 
L 2988 3500 
L 3597 3500 
L 2059 -325 
z
" transform="scale(0.015625)"/>
     <path id="DejaVuSans-20" transform="scale(0.015625)"/>
     <path id="DejaVuSans-68" d="M 3513 2113 
L 3513 0 
L 2938 0 
L 2938 2094 
Q 2938 2591 2744 2837 
Q 2550 3084 2163 3084 
Q 1697 3084 1428 2787 
Q 1159 2491 1159 1978 
L 1159 0 
L 581 0 
L 581 4863 
L 1159 4863 
L 1159 2956 
Q 1366 3272 1645 3428 
Q 1925 3584 2291 3584 
Q 2894 3584 3203 3211 
Q 3513 2838 3513 2113 
z
" transform="scale(0.015625)"/>
     <path id="DejaVuSans-6f" d="M 1959 3097 
Q 1497 3097 1228 2736 
Q 959 2375 959 1747 
Q 959 1119 1226 758 
Q 1494 397 1959 397 
Q 2419 397 2687 759 
Q 2956 1122 2956 1747 
Q 2956 2369 2687 2733 
Q 2419 3097 1959 3097 
z
M 1959 3584 
Q 2709 3584 3137 3096 
Q 3566 2609 3566 1747 
Q 3566 888 3137 398 
Q 2709 -91 1959 -91 
Q 1206 -91 779 398 
Q 353 888 353 1747 
Q 353 2609 779 3096 
Q 1206 3584 1959 3584 
z
" transform="scale(0.015625)"/>
     <path id="DejaVuSans-6d" d="M 3328 2828 
Q 3544 3216 3844 3400 
Q 4144 3584 4550 3584 
Q 5097 3584 5394 3201 
Q 5691 2819 5691 2113 
L 5691 0 
L 5113 0 
L 5113 2094 
Q 5113 2597 4934 2840 
Q 4756 3084 4391 3084 
Q 3944 3084 3684 2787 
Q 3425 2491 3425 1978 
L 3425 0 
L 2847 0 
L 2847 2094 
Q 2847 2600 2669 2842 
Q 2491 3084 2119 3084 
Q 1678 3084 1418 2786 
Q 1159 2488 1159 1978 
L 1159 0 
L 581 0 
L 581 3500 
L 1159 3500 
L 1159 2956 
Q 1356 3278 1631 3431 
Q 1906 3584 2284 3584 
Q 2666 3584 2933 3390 
Q 3200 3197 3328 2828 
z
" transform="scale(0.015625)"/>
     <path id="DejaVuSans-70" d="M 1159 525 
L 1159 -1331 
L 581 -1331 
L 581 3500 
L 1159 3500 
L 1159 2969 
Q 1341 3281 1617 3432 
Q 1894 3584 2278 3584 
Q 2916 3584 3314 3078 
Q 3713 2572 3713 1747 
Q 3713 922 3314 415 
Q 2916 -91 2278 -91 
Q 1894 -91 1617 61 
Q 1341 213 1159 525 
z
M 3116 1747 
Q 3116 2381 2855 2742 
Q 2594 3103 2138 3103 
Q 1681 3103 1420 2742 
Q 1159 2381 1159 1747 
Q 1159 1113 1420 752 
Q 1681 391 2138 391 
Q 2594 391 2855 752 
Q 3116 1113 3116 1747 
z
" transform="scale(0.015625)"/>
     <path id="DejaVuSans-6e" d="M 3513 2113 
L 3513 0 
L 2938 0 
L 2938 2094 
Q 2938 2591 2744 2837 
Q 2550 3084 2163 3084 
Q 1697 3084 1428 2787 
Q 1159 2491 1159 1978 
L 1159 0 
L 581 0 
L 581 3500 
L 1159 3500 
L 1159 2956 
Q 1366 3272 1645 3428 
Q 1925 3584 2291 3584 
Q 2894 3584 3203 3211 
Q 3513 2838 3513 2113 
z
" transform="scale(0.015625)"/>
     <path id="DejaVuSans-28" d="M 1984 4856 
Q 1566 4138 1362 3434 
Q 1159 2731 1159 2009 
Q 1159 1288 1364 580 
Q 1569 -128 1984 -844 
L 1484 -844 
Q 1016 -109 783 600 
Q 550 1309 550 2009 
Q 550 2706 781 3412 
Q 1013 4119 1484 4856 
L 1984 4856 
z
" transform="scale(0.015625)"/>
     <path id="DejaVuSans-77" d="M 269 3500 
L 844 3500 
L 1563 769 
L 2278 3500 
L 2956 3500 
L 3675 769 
L 4391 3500 
L 4966 3500 
L 4050 0 
L 3372 0 
L 2619 2869 
L 1863 0 
L 1184 0 
L 269 3500 
z
" transform="scale(0.015625)"/>
     <path id="DejaVuSans-67" d="M 2906 1791 
Q 2906 2416 2648 2759 
Q 2391 3103 1925 3103 
Q 1463 3103 1205 2759 
Q 947 2416 947 1791 
Q 947 1169 1205 825 
Q 1463 481 1925 481 
Q 2391 481 2648 825 
Q 2906 1169 2906 1791 
z
M 3481 434 
Q 3481 -459 3084 -895 
Q 2688 -1331 1869 -1331 
Q 1566 -1331 1297 -1286 
Q 1028 -1241 775 -1147 
L 775 -588 
Q 1028 -725 1275 -790 
Q 1522 -856 1778 -856 
Q 2344 -856 2625 -561 
Q 2906 -266 2906 331 
L 2906 616 
Q 2728 306 2450 153 
Q 2172 0 1784 0 
Q 1141 0 747 490 
Q 353 981 353 1791 
Q 353 2603 747 3093 
Q 1141 3584 1784 3584 
Q 2172 3584 2450 3431 
Q 2728 3278 2906 2969 
L 2906 3500 
L 3481 3500 
L 3481 434 
z
" transform="scale(0.015625)"/>
     <path id="DejaVuSans-29" d="M 513 4856 
L 1013 4856 
Q 1481 4119 1714 3412 
Q 1947 2706 1947 2009 
Q 1947 1309 1714 600 
Q 1481 -109 1013 -844 
L 513 -844 
Q 928 -128 1133 580 
Q 1338 1288 1338 2009 
Q 1338 2731 1133 3434 
Q 928 4138 513 4856 
z
" transform="scale(0.015625)"/>
    </defs>
    <use xlink:href="#DejaVuSans-53"/>
    <use xlink:href="#DejaVuSans-65" transform="translate(63.476562 0)"/>
    <use xlink:href="#DejaVuSans-76" transform="translate(125 0)"/>
    <use xlink:href="#DejaVuSans-65" transform="translate(184.179688 0)"/>
    <use xlink:href="#DejaVuSans-72" transform="translate(245.703125 0)"/>
    <use xlink:href="#DejaVuSans-69" transform="translate(286.816406 0)"/>
    <use xlink:href="#DejaVuSans-74" transform="translate(314.599609 0)"/>
    <use xlink:href="#DejaVuSans-79" transform="translate(353.808594 0)"/>
    <use xlink:href="#DejaVuSans-20" transform="translate(412.988281 0)"/>
    <use xlink:href="#DejaVuSans-73" transform="translate(444.775391 0)"/>
    <use xlink:href="#DejaVuSans-68" transform="translate(496.875 0)"/>
    <use xlink:href="#DejaVuSans-61" transform="translate(560.253906 0)"/>
    <use xlink:href="#DejaVuSans-72" transform="translate(621.533203 0)"/>
    <use xlink:href="#DejaVuSans-65" transform="translate(660.396484 0)"/>
    <use xlink:href="#DejaVuSans-20" transform="translate(721.919922 0)"/>
    <use xlink:href="#DejaVuSans-64" transform="translate(753.707031 0)"/>
    <use xlink:href="#DejaVuSans-65" transform="translate(817.183594 0)"/>
    <use xlink:href="#DejaVuSans-63" transform="translate(878.707031 0)"/>
    <use xlink:href="#DejaVuSans-6f" transform="translate(933.6875 0)"/>
    <use xlink:href="#DejaVuSans-6d" transform="translate(994.869141 0)"/>
    <use xlink:href="#DejaVuSans-70" transform="translate(1092.28125 0)"/>
    <use xlink:href="#DejaVuSans-6f" transform="translate(1155.757812 0)"/>
    <use xlink:href="#DejaVuSans-73" transform="translate(1216.939453 0)"/>
    <use xlink:href="#DejaVuSans-69" transform="translate(1269.039062 0)"/>
    <use xlink:href="#DejaVuSans-74" transform="translate(1296.822266 0)"/>
    <use xlink:href="#DejaVuSans-69" transform="translate(1336.03125 0)"/>
    <use xlink:href="#DejaVuSans-6f" transform="translate(1363.814453 0)"/>
    <use xlink:href="#DejaVuSans-6e" transform="translate(1424.996094 0)"/>
    <use xlink:href="#DejaVuSans-20" transform="translate(1488.375 0)"/>
    <use xlink:href="#DejaVuSans-28" transform="translate(1520.162109 0)"/>
    <use xlink:href="#DejaVuSans-6d" transform="translate(1559.175781 0)"/>
    <use xlink:href="#DejaVuSans-65" transform="translate(1656.587891 0)"/>
    <use xlink:href="#DejaVuSans-64" transform="translate(1718.111328 0)"/>
    <use xlink:href="#DejaVuSans-69" transform="translate(1781.587891 0)"/>
    <use xlink:href="#DejaVuSans-61" transform="translate(1809.371094 0)"/>
    <use xlink:href="#DejaVuSans-6e" transform="translate(1870.650391 0)"/>
    <use xlink:href="#DejaVuSans-20" transform="translate(1934.029297 0)"/>
    <use xlink:href="#DejaVuSans-77" transform="translate(1965.816406 0)"/>
    <use xlink:href="#DejaVuSans-69" transform="translate(2047.603516 0)"/>
    <use xlink:href="#DejaVuSans-74" transform="translate(2075.386719 0)"/>
    <use xlink:href="#DejaVuSans-68" transform="translate(2114.595703 0)"/>
    <use xlink:href="#DejaVuSans-69" transform="translate(2177.974609 0)"/>
    <use xlink:href="#DejaVuSans-6e" transform="translate(2205.757812 0)"/>
    <use xlink:href="#DejaVuSans-20" transform="translate(2269.136719 0)"/>
    <use xlink:href="#DejaVuSans-72" transform="translate(2300.923828 0)"/>
    <use xlink:href="#DejaVuSans-65" transform="translate(2339.787109 0)"/>
    <use xlink:href="#DejaVuSans-67" transform="translate(2401.310547 0)"/>
    <use xlink:href="#DejaVuSans-69" transform="translate(2464.787109 0)"/>
    <use xlink:href="#DejaVuSans-6d" transform="translate(2492.570312 0)"/>
    <use xlink:href="#DejaVuSans-65" transform="translate(2589.982422 0)"/>
    <use xlink:href="#DejaVuSans-29" transform="translate(2651.505859 0)"/>
   </g>
  </g>
  <g id="legend_1">
   <g id="patch_23">
    <path d="M 254.20114 288.64 
L 608.78239 288.64 
Q 610.38239 288.64 610.38239 287.04 
L 610.38239 263.91 
Q 610.38239 262.31 608.78239 262.31 
L 254.20114 262.31 
Q 252.60114 262.31 252.60114 263.91 
L 252.60114 287.04 
Q 252.60114 288.64 254.20114 288.64 
z
" style="fill: #ffffff; opacity: 0.8; stroke: #cccccc; stroke-linejoin: miter"/>
   </g>
   <g id="patch_24">
    <path d="M 255.80114 271.58875 
L 271.80114 271.58875 
L 271.80114 265.98875 
L 255.80114 265.98875 
z
" style="fill: #1f77b4"/>
   </g>
   <g id="text_16">
    <!-- external_fx -->
    <g transform="translate(278.20114 271.58875) scale(0.08 -0.08)">
     <defs>
      <path id="DejaVuSans-78" d="M 3513 3500 
L 2247 1797 
L 3578 0 
L 2900 0 
L 1881 1375 
L 863 0 
L 184 0 
L 1544 1831 
L 300 3500 
L 978 3500 
L 1906 2253 
L 2834 3500 
L 3513 3500 
z
" transform="scale(0.015625)"/>
      <path id="DejaVuSans-6c" d="M 603 4863 
L 1178 4863 
L 1178 0 
L 603 0 
L 603 4863 
z
" transform="scale(0.015625)"/>
      <path id="DejaVuSans-5f" d="M 3263 -1063 
L 3263 -1509 
L -63 -1509 
L -63 -1063 
L 3263 -1063 
z
" transform="scale(0.015625)"/>
      <path id="DejaVuSans-66" d="M 2375 4863 
L 2375 4384 
L 1825 4384 
Q 1516 4384 1395 4259 
Q 1275 4134 1275 3809 
L 1275 3500 
L 2222 3500 
L 2222 3053 
L 1275 3053 
L 1275 0 
L 697 0 
L 697 3053 
L 147 3053 
L 147 3500 
L 697 3500 
L 697 3744 
Q 697 4328 969 4595 
Q 1241 4863 1831 4863 
L 2375 4863 
z
" transform="scale(0.015625)"/>
     </defs>
     <use xlink:href="#DejaVuSans-65"/>
     <use xlink:href="#DejaVuSans-78" transform="translate(59.773438 0)"/>
     <use xlink:href="#DejaVuSans-74" transform="translate(118.953125 0)"/>
     <use xlink:href="#DejaVuSans-65" transform="translate(158.162109 0)"/>
     <use xlink:href="#DejaVuSans-72" transform="translate(219.685547 0)"/>
     <use xlink:href="#DejaVuSans-6e" transform="translate(259.048828 0)"/>
     <use xlink:href="#DejaVuSans-61" transform="translate(322.427734 0)"/>
     <use xlink:href="#DejaVuSans-6c" transform="translate(383.707031 0)"/>
     <use xlink:href="#DejaVuSans-5f" transform="translate(411.490234 0)"/>
     <use xlink:href="#DejaVuSans-66" transform="translate(461.490234 0)"/>
     <use xlink:href="#DejaVuSans-78" transform="translate(496.695312 0)"/>
    </g>
   </g>
   <g id="patch_25">
    <path d="M 255.80114 283.55375 
L 271.80114 283.55375 
L 271.80114 277.95375 
L 255.80114 277.95375 
z
" style="fill: #ff7f0e"/>
   </g>
   <g id="text_17">
    <!-- systemic_stress -->
    <g transform="translate(278.20114 283.55375) scale(0.08 -0.08)">
     <use xlink:href="#DejaVuSans-73"/>
     <use xlink:href="#DejaVuSans-79" transform="translate(52.099609 0)"/>
     <use xlink:href="#DejaVuSans-73" transform="translate(111.279297 0)"/>
     <use xlink:href="#DejaVuSans-74" transform="translate(163.378906 0)"/>
     <use xlink:href="#DejaVuSans-65" transform="translate(202.587891 0)"/>
     <use xlink:href="#DejaVuSans-6d" transform="translate(264.111328 0)"/>
     <use xlink:href="#DejaVuSans-69" transform="translate(361.523438 0)"/>
     <use xlink:href="#DejaVuSans-63" transform="translate(389.306641 0)"/>
     <use xlink:href="#DejaVuSans-5f" transform="translate(444.287109 0)"/>
     <use xlink:href="#DejaVuSans-73" transform="translate(494.287109 0)"/>
     <use xlink:href="#DejaVuSans-74" transform="translate(546.386719 0)"/>
     <use xlink:href="#DejaVuSans-72" transform="translate(585.595703 0)"/>
     <use xlink:href="#DejaVuSans-65" transform="translate(624.458984 0)"/>
     <use xlink:href="#DejaVuSans-73" transform="translate(685.982422 0)"/>
     <use xlink:href="#DejaVuSans-73" transform="translate(738.082031 0)"/>
    </g>
   </g>
   <g id="patch_26">
    <path d="M 357.41364 271.58875 
L 373.41364 271.58875 
L 373.41364 265.98875 
L 357.41364 265.98875 
z
" style="fill: #2ca02c"/>
   </g>
   <g id="text_18">
    <!-- public_finance -->
    <g transform="translate(379.81364 271.58875) scale(0.08 -0.08)">
     <defs>
      <path id="DejaVuSans-75" d="M 544 1381 
L 544 3500 
L 1119 3500 
L 1119 1403 
Q 1119 906 1312 657 
Q 1506 409 1894 409 
Q 2359 409 2629 706 
Q 2900 1003 2900 1516 
L 2900 3500 
L 3475 3500 
L 3475 0 
L 2900 0 
L 2900 538 
Q 2691 219 2414 64 
Q 2138 -91 1772 -91 
Q 1169 -91 856 284 
Q 544 659 544 1381 
z
M 1991 3584 
L 1991 3584 
z
" transform="scale(0.015625)"/>
      <path id="DejaVuSans-62" d="M 3116 1747 
Q 3116 2381 2855 2742 
Q 2594 3103 2138 3103 
Q 1681 3103 1420 2742 
Q 1159 2381 1159 1747 
Q 1159 1113 1420 752 
Q 1681 391 2138 391 
Q 2594 391 2855 752 
Q 3116 1113 3116 1747 
z
M 1159 2969 
Q 1341 3281 1617 3432 
Q 1894 3584 2278 3584 
Q 2916 3584 3314 3078 
Q 3713 2572 3713 1747 
Q 3713 922 3314 415 
Q 2916 -91 2278 -91 
Q 1894 -91 1617 61 
Q 1341 213 1159 525 
L 1159 0 
L 581 0 
L 581 4863 
L 1159 4863 
L 1159 2969 
z
" transform="scale(0.015625)"/>
     </defs>
     <use xlink:href="#DejaVuSans-70"/>
     <use xlink:href="#DejaVuSans-75" transform="translate(63.476562 0)"/>
     <use xlink:href="#DejaVuSans-62" transform="translate(126.855469 0)"/>
     <use xlink:href="#DejaVuSans-6c" transform="translate(190.332031 0)"/>
     <use xlink:href="#DejaVuSans-69" transform="translate(218.115234 0)"/>
     <use xlink:href="#DejaVuSans-63" transform="translate(245.898438 0)"/>
     <use xlink:href="#DejaVuSans-5f" transform="translate(300.878906 0)"/>
     <use xlink:href="#DejaVuSans-66" transform="translate(350.878906 0)"/>
     <use xlink:href="#DejaVuSans-69" transform="translate(386.083984 0)"/>
     <use xlink:href="#DejaVuSans-6e" transform="translate(413.867188 0)"/>
     <use xlink:href="#DejaVuSans-61" transform="translate(477.246094 0)"/>
     <use xlink:href="#DejaVuSans-6e" transform="translate(538.525391 0)"/>
     <use xlink:href="#DejaVuSans-63" transform="translate(601.904297 0)"/>
     <use xlink:href="#DejaVuSans-65" transform="translate(656.884766 0)"/>
    </g>
   </g>
   <g id="patch_27">
    <path d="M 357.41364 283.55375 
L 373.41364 283.55375 
L 373.41364 277.95375 
L 357.41364 277.95375 
z
" style="fill: #d62728"/>
   </g>
   <g id="text_19">
    <!-- commodities -->
    <g transform="translate(379.81364 283.55375) scale(0.08 -0.08)">
     <use xlink:href="#DejaVuSans-63"/>
     <use xlink:href="#DejaVuSans-6f" transform="translate(54.980469 0)"/>
     <use xlink:href="#DejaVuSans-6d" transform="translate(116.162109 0)"/>
     <use xlink:href="#DejaVuSans-6d" transform="translate(213.574219 0)"/>
     <use xlink:href="#DejaVuSans-6f" transform="translate(310.986328 0)"/>
     <use xlink:href="#DejaVuSans-64" transform="translate(372.167969 0)"/>
     <use xlink:href="#DejaVuSans-69" transform="translate(435.644531 0)"/>
     <use xlink:href="#DejaVuSans-74" transform="translate(463.427734 0)"/>
     <use xlink:href="#DejaVuSans-69" transform="translate(502.636719 0)"/>
     <use xlink:href="#DejaVuSans-65" transform="translate(530.419922 0)"/>
     <use xlink:href="#DejaVuSans-73" transform="translate(591.943359 0)"/>
    </g>
   </g>
   <g id="patch_28">
    <path d="M 453.28739 271.58875 
L 469.28739 271.58875 
L 469.28739 265.98875 
L 453.28739 265.98875 
z
" style="fill: #9467bd"/>
   </g>
   <g id="text_20">
    <!-- financial_markets -->
    <g transform="translate(475.68739 271.58875) scale(0.08 -0.08)">
     <defs>
      <path id="DejaVuSans-6b" d="M 581 4863 
L 1159 4863 
L 1159 1991 
L 2875 3500 
L 3609 3500 
L 1753 1863 
L 3688 0 
L 2938 0 
L 1159 1709 
L 1159 0 
L 581 0 
L 581 4863 
z
" transform="scale(0.015625)"/>
     </defs>
     <use xlink:href="#DejaVuSans-66"/>
     <use xlink:href="#DejaVuSans-69" transform="translate(35.205078 0)"/>
     <use xlink:href="#DejaVuSans-6e" transform="translate(62.988281 0)"/>
     <use xlink:href="#DejaVuSans-61" transform="translate(126.367188 0)"/>
     <use xlink:href="#DejaVuSans-6e" transform="translate(187.646484 0)"/>
     <use xlink:href="#DejaVuSans-63" transform="translate(251.025391 0)"/>
     <use xlink:href="#DejaVuSans-69" transform="translate(306.005859 0)"/>
     <use xlink:href="#DejaVuSans-61" transform="translate(333.789062 0)"/>
     <use xlink:href="#DejaVuSans-6c" transform="translate(395.068359 0)"/>
     <use xlink:href="#DejaVuSans-5f" transform="translate(422.851562 0)"/>
     <use xlink:href="#DejaVuSans-6d" transform="translate(472.851562 0)"/>
     <use xlink:href="#DejaVuSans-61" transform="translate(570.263672 0)"/>
     <use xlink:href="#DejaVuSans-72" transform="translate(631.542969 0)"/>
     <use xlink:href="#DejaVuSans-6b" transform="translate(672.65625 0)"/>
     <use xlink:href="#DejaVuSans-65" transform="translate(726.941406 0)"/>
     <use xlink:href="#DejaVuSans-74" transform="translate(788.464844 0)"/>
     <use xlink:href="#DejaVuSans-73" transform="translate(827.673828 0)"/>
    </g>
   </g>
   <g id="patch_29">
    <path d="M 453.28739 283.55375 
L 469.28739 283.55375 
L 469.28739 277.95375 
L 453.28739 277.95375 
z
" style="fill: #8c564b"/>
   </g>
   <g id="text_21">
    <!-- banking_system -->
    <g transform="translate(475.68739 283.55375) scale(0.08 -0.08)">
     <use xlink:href="#DejaVuSans-62"/>
     <use xlink:href="#DejaVuSans-61" transform="translate(63.476562 0)"/>
     <use xlink:href="#DejaVuSans-6e" transform="translate(124.755859 0)"/>
     <use xlink:href="#DejaVuSans-6b" transform="translate(188.134766 0)"/>
     <use xlink:href="#DejaVuSans-69" transform="translate(246.044922 0)"/>
     <use xlink:href="#DejaVuSans-6e" transform="translate(273.828125 0)"/>
     <use xlink:href="#DejaVuSans-67" transform="translate(337.207031 0)"/>
     <use xlink:href="#DejaVuSans-5f" transform="translate(400.683594 0)"/>
     <use xlink:href="#DejaVuSans-73" transform="translate(450.683594 0)"/>
     <use xlink:href="#DejaVuSans-79" transform="translate(502.783203 0)"/>
     <use xlink:href="#DejaVuSans-73" transform="translate(561.962891 0)"/>
     <use xlink:href="#DejaVuSans-74" transform="translate(614.0625 0)"/>
     <use xlink:href="#DejaVuSans-65" transform="translate(653.271484 0)"/>
     <use xlink:href="#DejaVuSans-6d" transform="translate(714.794922 0)"/>
    </g>
   </g>
   <g id="patch_30">
    <path d="M 562.06739 271.58875 
L 578.06739 271.58875 
L 578.06739 265.98875 
L 562.06739 265.98875 
z
" style="fill: #e377c2"/>
   </g>
   <g id="text_22">
    <!-- Other -->
    <g transform="translate(584.46739 271.58875) scale(0.08 -0.08)">
     <defs>
      <path id="DejaVuSans-4f" d="M 2522 4238 
Q 1834 4238 1429 3725 
Q 1025 3213 1025 2328 
Q 1025 1447 1429 934 
Q 1834 422 2522 422 
Q 3209 422 3611 934 
Q 4013 1447 4013 2328 
Q 4013 3213 3611 3725 
Q 3209 4238 2522 4238 
z
M 2522 4750 
Q 3503 4750 4090 4092 
Q 4678 3434 4678 2328 
Q 4678 1225 4090 567 
Q 3503 -91 2522 -91 
Q 1538 -91 948 565 
Q 359 1222 359 2328 
Q 359 3434 948 4092 
Q 1538 4750 2522 4750 
z
" transform="scale(0.015625)"/>
     </defs>
     <use xlink:href="#DejaVuSans-4f"/>
     <use xlink:href="#DejaVuSans-74" transform="translate(78.710938 0)"/>
     <use xlink:href="#DejaVuSans-68" transform="translate(117.919922 0)"/>
     <use xlink:href="#DejaVuSans-65" transform="translate(181.298828 0)"/>
     <use xlink:href="#DejaVuSans-72" transform="translate(242.822266 0)"/>
    </g>
   </g>
  </g>
 </g>
</svg>
